<?xml version="1.0" standalone="no"?><!DOCTYPE svg PUBLIC "-//W3C//DTD SVG 1.1//EN" "http://www.w3.org/Graphics/SVG/1.1/DTD/svg11.dtd"><svg t="1651043019131" class="icon" viewBox="0 0 1024 1024" version="1.1" xmlns="http://www.w3.org/2000/svg" p-id="10708" xmlns:xlink="http://www.w3.org/1999/xlink" width="16" height="16"><defs><style type="text/css">@font-face { font-family: feedback-iconfont; src: url("//at.alicdn.com/t/font_1031158_u69w8yhxdu.woff2?t=1630033759944") format("woff2"), url("//at.alicdn.com/t/font_1031158_u69w8yhxdu.woff?t=1630033759944") format("woff"), url("//at.alicdn.com/t/font_1031158_u69w8yhxdu.ttf?t=1630033759944") format("truetype"); }
</style></defs><path d="M694.857143 146.285714 694.857143 73.142857c0-40.393143-32.749714-73.142857-73.142857-73.142857L402.285714 0c-40.393143 0-73.142857 32.749714-73.142857 73.142857l0 73.142857L36.571429 146.285714l0 73.142857 109.714286 0 0 731.428571c0 40.393143 32.749714 73.142857 73.142857 73.142857l585.142857 0c40.393143 0 73.142857-32.749714 73.142857-73.142857L877.714286 219.428571l109.714286 0L987.428571 146.285714 694.857143 146.285714zM402.285714 73.142857l219.428571 0 0 73.142857L402.285714 146.285714 402.285714 73.142857zM804.571429 950.857143 219.428571 950.857143 219.428571 219.428571l585.142857 0L804.571429 950.857143z" p-id="10709"></path><path d="M329.142857 329.142857l73.142857 0 0 512-73.142857 0 0-512Z" p-id="10710"></path><path d="M475.428571 329.142857l73.142857 0 0 512-73.142857 0 0-512Z" p-id="10711"></path><path d="M621.714286 329.142857l73.142857 0 0 512-73.142857 0 0-512Z" p-id="10712"></path></svg>