<?xml version="1.0" standalone="no"?><!DOCTYPE svg PUBLIC "-//W3C//DTD SVG 1.1//EN" "http://www.w3.org/Graphics/SVG/1.1/DTD/svg11.dtd"><svg t="1653011750775" class="icon" viewBox="0 0 1024 1024" version="1.1" xmlns="http://www.w3.org/2000/svg" p-id="21297" xmlns:xlink="http://www.w3.org/1999/xlink" width="128" height="128"><defs><style type="text/css">@font-face { font-family: feedback-iconfont; src: url("//at.alicdn.com/t/font_1031158_u69w8yhxdu.woff2?t=1630033759944") format("woff2"), url("//at.alicdn.com/t/font_1031158_u69w8yhxdu.woff?t=1630033759944") format("woff"), url("//at.alicdn.com/t/font_1031158_u69w8yhxdu.ttf?t=1630033759944") format("truetype"); }
</style></defs><path d="M724 584.5h47v114.8h-47zM320.4 872.6H712l20.1 35.6S717 932.4 713 932c-4-0.3-408.9-8.7-408.9-8.7l-13.6-24 29.9-26.7z" fill="#EAD9C3" p-id="21298"></path><path d="M445.8 499.4l-22.5 82.3 16.8 172.2-5.1 109.8 17.4 11.2 124.2-1.1 29-7.6-29.7-73.5 13.6-87.4 10.2-150.7-37.5-53z" fill="#E8E8E8" p-id="21299"></path><path d="M256.1 135.6l509.3 1.5 85.1 339.4-20.1 27.4-641-2.3-14.4-36.7z" fill="#54BDDD" p-id="21300"></path><path d="M451.7 101.3h124.1v29.3H451.7z" fill="#E8E8E8" p-id="21301"></path><path d="M579.3 135.4H445.6v-29.5c0-5.5 4.5-10 10-10h113.7c5.5 0 10 4.5 10 10v29.5z" fill="#E8E8E8" p-id="21302"></path><path d="M751 705.3h-9.7c-12.5 0-22.6-10.1-22.6-22.6V604c0-12.5 10.1-22.6 22.6-22.6h9.7c12.5 0 22.6 10.1 22.6 22.6v78.7c0.1 12.4-10.1 22.6-22.6 22.6z" fill="#EAD9C3" p-id="21303"></path><path d="M737.8 683.2v-79.8c0-12.1 9.7-21.8 21.6-22.1H748.2c-12.2 0-22.1 9.9-22.1 22.1v79.8c0 12.2 9.9 22.1 22.1 22.1H759.4c-11.9-0.3-21.6-10.1-21.6-22.1z" fill="#EDE6DD" p-id="21304"></path><path d="M759.9 581.4h-0.4M759.5 705.3h0.4" fill="#EAD9C3" p-id="21305"></path><path d="M753.7 683.2v-79.8c0-12.1-9.7-21.8-21.6-22.1H743.3c12.2 0 22.1 9.9 22.1 22.1v79.8c0 12.2-9.9 22.1-22.1 22.1H732.1c11.9-0.3 21.6-10.1 21.6-22.1zM731.6 581.4h0.4M732 705.3h-0.4" fill="#D6C8B3" p-id="21306"></path><path d="M751 717.3h-9.7c-19.1 0-34.6-15.5-34.6-34.6V604c0-19.1 15.5-34.6 34.6-34.6h9.7c19.1 0 34.6 15.5 34.6 34.6v78.7c0.1 19-15.5 34.6-34.6 34.6z m-9.7-123.9c-5.9 0-10.6 4.8-10.6 10.6v78.7c0 5.9 4.8 10.6 10.6 10.6h9.7c5.9 0 10.6-4.8 10.6-10.6V604c0-5.9-4.8-10.6-10.6-10.6h-9.7z" fill="#3D6072" p-id="21307"></path><path d="M765 630.7h-41.5c-3.3 0-6-2.7-6-6s2.7-6 6-6H765c3.3 0 6 2.7 6 6s-2.7 6-6 6z" fill="#3D6072" p-id="21308"></path><path d="M483.1 101.3v32l-34.5-2.8-3-27.9z" fill="#F2F0F0" p-id="21309"></path><path d="M582.8 103.6v32l-34.5-2.7-2.9-27.9z" fill="#D5D5D5" p-id="21310"></path><path d="M816.5 497.9H199.6c-18.6 0-32.5-17.2-28.6-35.4l65.5-306.1c2.9-13.5 14.8-23.1 28.6-23.1h485.8c13.8 0 25.7 9.6 28.6 23.1L845 462.5c4 18.2-9.9 35.4-28.5 35.4z" fill="#54BDDD" p-id="21311"></path><path d="M426.2 870.2c21.6-23.9 29.8-86.1 16.3-145.5-45.2-199.2 17.9-223.2 17.9-223.2h109.1s63.1 23.9 17.9 223.2c-13.5 59.4-5.3 121.6 16.3 145.5H426.2z" fill="#E8E8E8" p-id="21312"></path><path d="M485.2 724.7c-45.2-199.2 17.9-223.2 17.9-223.2h-41s-63.1 23.9-17.9 223.2c13.5 59.4 5.3 121.6-16.3 145.5h41c21.6-23.9 29.7-86.1 16.3-145.5z" fill="#F2F0F0" p-id="21313"></path><path d="M544.3 724.7c45.2-199.2-17.9-223.2-17.9-223.2h41s63.1 23.9 17.9 223.2c-13.5 59.4-5.3 121.6 16.3 145.5h-41c-21.6-23.9-29.8-86.1-16.3-145.5z" fill="#D5D5D5" p-id="21314"></path><path d="M484.212835 575.724819a2.6 2.6 0 1 0 4.991471-1.457812 2.6 2.6 0 1 0-4.991471 1.457812Z" fill="#686767" p-id="21315"></path><path d="M465.102526 537.340789a2.6 2.6 0 1 0 0.665057-5.157296 2.6 2.6 0 1 0-0.665057 5.157296Z" fill="#AEAFAF" p-id="21316"></path><path d="M443.738988 552.827658a2.6 2.6 0 1 0 4.991471-1.457812 2.6 2.6 0 1 0-4.991471 1.457812Z" fill="#686767" p-id="21317"></path><path d="M470.788926 684.120992a2.6 2.6 0 1 0 3.409109-3.926573 2.6 2.6 0 1 0-3.409109 3.926573Z" fill="#686767" p-id="21318"></path><path d="M458.260991 750.921278a2.6 2.6 0 1 0 0.665057-5.157296 2.6 2.6 0 1 0-0.665057 5.157296Z" fill="#686767" p-id="21319"></path><path d="M460.975281 811.101457a2.6 2.6 0 1 0 1.458073-4.991395 2.6 2.6 0 1 0-1.458073 4.991395Z" fill="#AEAFAF" p-id="21320"></path><path d="M492.18177 815.050112a2.6 2.6 0 1 0 1.458073-4.991395 2.6 2.6 0 1 0-1.458073 4.991395Z" fill="#AEAFAF" p-id="21321"></path><path d="M488.967353 715.150881a2.6 2.6 0 1 0 1.458073-4.991394 2.6 2.6 0 1 0-1.458073 4.991394Z" fill="#AEAFAF" p-id="21322"></path><path d="M488.623873 609.732094a2.6 2.6 0 1 0 5.157366-0.664516 2.6 2.6 0 1 0-5.157366 0.664516Z" fill="#AEAFAF" p-id="21323"></path><path d="M489.727052 747.341643a2.6 2.6 0 1 0 5.157365-0.664517 2.6 2.6 0 1 0-5.157365 0.664517Z" fill="#AEAFAF" p-id="21324"></path><path d="M441.523502 663.688802a2.6 2.6 0 1 0 3.409109-3.926573 2.6 2.6 0 1 0-3.409109 3.926573Z" fill="#686767" p-id="21325"></path><path d="M443.963277 734.937444a2.6 2.6 0 1 0 1.458073-4.991395 2.6 2.6 0 1 0-1.458073 4.991395Z" fill="#AEAFAF" p-id="21326"></path><path d="M435.125603 595.964826a2.6 2.6 0 1 0 4.912427-1.705306 2.6 2.6 0 1 0-4.912427 1.705306Z" fill="#AEAFAF" p-id="21327"></path><path d="M486.4 863.7m-2.6 0a2.6 2.6 0 1 0 5.2 0 2.6 2.6 0 1 0-5.2 0Z" fill="#686767" p-id="21328"></path><path d="M435.11456 851.065339a2.6 2.6 0 1 0 4.912426-1.705306 2.6 2.6 0 1 0-4.912426 1.705306Z" fill="#AEAFAF" p-id="21329"></path><path d="M562.315636 559.814405a2.6 2.6 0 1 0 4.991471-1.457811 2.6 2.6 0 1 0-4.991471 1.457811Z" fill="#686767" p-id="21330"></path><path d="M543.177338 521.499869a2.6 2.6 0 1 0 0.665057-5.157296 2.6 2.6 0 1 0-0.665057 5.157296Z" fill="#AEAFAF" p-id="21331"></path><path d="M521.813675 536.820694a2.6 2.6 0 1 0 4.991471-1.457812 2.6 2.6 0 1 0-4.991471 1.457812Z" fill="#686767" p-id="21332"></path><path d="M509.2 112.2c0.2 1.8 2 2.8 3.5 2.1 1-0.4 1.7-1.5 1.6-2.6-0.2-1.8-2-2.8-3.5-2.1-1 0.4-1.7 1.5-1.6 2.6z" fill="#AEAFAF" p-id="21333"></path><path d="M474.117517 117.805554a2.6 2.6 0 1 0 4.991471-1.457812 2.6 2.6 0 1 0-4.991471 1.457812Z" fill="#686767" p-id="21334"></path><path d="M547.397572 119.806118a2.6 2.6 0 1 0 4.991471-1.457812 2.6 2.6 0 1 0-4.991471 1.457812Z" fill="#686767" p-id="21335"></path><path d="M548.892742 668.197359a2.6 2.6 0 1 0 3.409109-3.926574 2.6 2.6 0 1 0-3.409109 3.926574Z" fill="#686767" p-id="21336"></path><path d="M536.348593 734.981179a2.6 2.6 0 1 0 0.665057-5.157296 2.6 2.6 0 1 0-0.665057 5.157296Z" fill="#686767" p-id="21337"></path><path d="M539.068571 795.164506a2.6 2.6 0 1 0 1.458073-4.991395 2.6 2.6 0 1 0-1.458073 4.991395Z" fill="#AEAFAF" p-id="21338"></path><path d="M570.24726 799.20747a2.6 2.6 0 1 0 1.458073-4.991395 2.6 2.6 0 1 0-1.458073 4.991395Z" fill="#AEAFAF" p-id="21339"></path><path d="M567.061602 699.213211a2.6 2.6 0 1 0 1.458073-4.991395 2.6 2.6 0 1 0-1.458073 4.991395Z" fill="#AEAFAF" p-id="21340"></path><path d="M566.627114 593.840612a2.6 2.6 0 1 0 5.157366-0.664517 2.6 2.6 0 1 0-5.157366 0.664517Z" fill="#AEAFAF" p-id="21341"></path><path d="M743.036574 606.432049a2.6 2.6 0 1 0 5.157365-0.664516 2.6 2.6 0 1 0-5.157365 0.664516Z" fill="#AEAFAF" p-id="21342"></path><path d="M567.730462 731.450791a2.6 2.6 0 1 0 5.157365-0.664517 2.6 2.6 0 1 0-5.157365 0.664517Z" fill="#AEAFAF" p-id="21343"></path><path d="M754.428139 634.632591a2.6 2.6 0 1 0 5.157366-0.664517 2.6 2.6 0 1 0-5.157366 0.664517Z" fill="#686767" p-id="21344"></path><path d="M740.427366 680.638543a2.6 2.6 0 1 0 5.157366-0.664517 2.6 2.6 0 1 0-5.157366 0.664517Z" fill="#686767" p-id="21345"></path><path d="M733.130125 646.835543a2.6 2.6 0 1 0 5.157366-0.664517 2.6 2.6 0 1 0-5.157366 0.664517Z" fill="#AEAFAF" p-id="21346"></path><path d="M519.550708 647.699198a2.6 2.6 0 1 0 3.409109-3.926573 2.6 2.6 0 1 0-3.409109 3.926573Z" fill="#686767" p-id="21347"></path><path d="M522.058486 718.999054a2.6 2.6 0 1 0 1.458073-4.991395 2.6 2.6 0 1 0-1.458073 4.991395Z" fill="#AEAFAF" p-id="21348"></path><path d="M513.229144 580.05782a2.6 2.6 0 1 0 4.912426-1.705306 2.6 2.6 0 1 0-4.912426 1.705306Z" fill="#AEAFAF" p-id="21349"></path><path d="M564.4 847.7m-2.6 0a2.6 2.6 0 1 0 5.2 0 2.6 2.6 0 1 0-5.2 0Z" fill="#686767" p-id="21350"></path><path d="M513.217773 835.158389a2.6 2.6 0 1 0 4.912426-1.705306 2.6 2.6 0 1 0-4.912426 1.705306Z" fill="#AEAFAF" p-id="21351"></path><path d="M596.222919 629.215522a2.6 2.6 0 1 0 3.409108-3.926573 2.6 2.6 0 1 0-3.409108 3.926573Z" fill="#686767" p-id="21352"></path><path d="M589.822296 561.479211a2.6 2.6 0 1 0 4.912426-1.705306 2.6 2.6 0 1 0-4.912426 1.705306Z" fill="#AEAFAF" p-id="21353"></path><path d="M600.8 882.2c-3.3 0-6.5-1.3-8.9-3.9-12.3-13.6-20.9-37-24.3-66.1-3.4-28.5-1.5-60.5 5.2-90.1 37.4-164.7-1.1-202.5-9.4-208.5H460.6c-8.3 6-46.8 43.8-9.4 208.5 6.7 29.6 8.6 61.6 5.2 90.1-3.4 29.1-12.1 52.5-24.3 66.1-4.4 4.9-12 5.3-16.9 0.8-4.9-4.4-5.3-12-0.8-16.9 17-18.7 26.9-75.6 13.5-134.8-19.2-84.8-21.8-149.6-7.7-192.7 11.6-35.3 30.9-43.5 33.1-44.4 1.4-0.5 2.8-0.8 4.3-0.8h109.1c1.5 0 2.9 0.3 4.3 0.8 2.2 0.8 21.5 9 33.1 44.4 14.1 43.1 11.5 107.9-7.7 192.7-13.4 59.2-3.4 116.1 13.5 134.8 4.4 4.9 4.1 12.5-0.8 16.9-2.6 2.1-5.4 3.1-8.3 3.1zM746.2 587.2c-6.6 0-12-5.4-12-12v-75c0-6.6 5.4-12 12-12s12 5.4 12 12v75c0 6.7-5.4 12-12 12zM768.3 665.2h-41.5c-3.3 0-6-2.7-6-6s2.7-6 6-6h41.5c3.3 0 6 2.7 6 6s-2.7 6-6 6z" fill="#3D6072" p-id="21354"></path><path d="M825.1 324.7h-0.4l1.5 6.6zM724.7 434.3l-17.1-80-393.6-1.4-17.4 81.4zM192.9 352.4l-3.5 36 7.7-36z" fill="#7CCEE0" p-id="21355"></path><path d="M732.7 471.8l-8-37.2H296.5l-6 27.9c-3 14.2 4.7 27.7 17.1 33l416.3 3.9c7.3-6.7 11.1-17 8.8-27.6z" fill="#3AB1CC" p-id="21356"></path><path d="M175 464.9l14-30.3h107.6l0.1-0.3H184.9l4.5-45.9-15.9 74.1c-3.9 18.2 10 35.4 28.6 35.4h117.1c-4.1 0-8-0.8-11.6-2.4L189 494.4l-14-29.5z" fill="#54BDDD" p-id="21357"></path><path d="M356.1 156.4c2.9-13.5 14.8-23.1 28.6-23.1H267.6c-13.8 0-25.7 9.6-28.6 23.1l-42 196 117 0.4 42.1-196.4z" fill="#74C8E2" p-id="21358"></path><path d="M296.6 434.3l17.4-81.4-116.9-0.5-7.7 36-4.5 45.9z" fill="#95D6E4" p-id="21359"></path><path d="M290.6 462.5l6-27.9H189l-14 30.3 14 29.5 118.7 1.1c-12.4-5.3-20.2-18.8-17.1-33z" fill="#5FBED4" p-id="21360"></path><path d="M849.8 471.8l-23.7-110.5 11.7 72.9H724.7l0.1 0.3h112.3l6.4 44.1-23.1 21.6-96.4-0.9c-5.2 4.8-12.1 7.8-19.9 7.8h117.1c18.6 0.1 32.5-17.1 28.6-35.3z" fill="#54BDDD" p-id="21361"></path><path d="M784.3 165.8c-2.9-13.5-14.8-23.1-28.6-23.1H638.6c13.8 0 25.7 9.6 28.6 23.1l40.4 188.5 117.2 0.4-40.5-188.9z" fill="#4DAECB" p-id="21362"></path><path d="M837.8 434.3l-11.6-73-1.5-6.6-117.1-0.4 17.1 80z" fill="#72BECE" p-id="21363"></path><path d="M843.5 478.7l-6.4-44.1H724.8l8 37.2c2.3 10.6-1.5 20.9-8.7 27.6l96.4 0.9 23-21.6z" fill="#35A3BC" p-id="21364"></path><path d="M309.7 395.4c0.5 1.3 0.3 3.7-0.5 4.2-4.5 2.4-9.4 4.3-13.2 6-5.2-0.3-8-3.5-6.5-7 1.1-2.4 3.3-4.6 5.4-6.4 4-3.2 13.2-1.2 14.8 3.2zM384.8 307.9c2.4 1.9 4.9 3.3 3.2 5.8-0.7 1-2.8 2-4 1.8-1.5-0.3-3.6-1.5-4-2.7-1.2-3.4 3-3.1 4.8-4.9zM259.8 267.1c4.2 3.2 8.5 5.7 5.6 10.2-1.1 1.7-4.8 3.5-6.9 3.1-2.7-0.4-6.3-2.6-7-4.7-2.2-5.9 5.1-5.4 8.3-8.6zM471.6 293.5c0.3 1.6 0.9 3.1 1.8 6.3-7.2-0.9-13-1.6-21.7-2.7 2-3.9 2.6-6.8 4.5-8.3 3.1-2.3 7.2-5.3 10.7-5.2 6.6 0.4 3.9 6.2 4.7 9.9zM690.7 183.6c-6.8-1.3-9-4.3-9.4-13.5 9.6 4 10.7 5.7 9.4 13.5zM654.2 371c-3.1 0.5-4.7-2-4.7-4.7-0.1-2.6 0.6-5.2 4-5.4 3.6-0.2 4.6 1.9 4.9 5.5-1.4 1.6-2.6 4.3-4.2 4.6zM594.6 352.5c3.4-0.5 10.6 3.3 10.9 5.6 1.1 8.8-7.1 9.3-16.3 11-1.7-7.8-5.7-14.9 5.4-16.6zM646.8 181c0.8 2.1-0.2 6.6-1.5 7-4.3 1.2-9.3 2-13.5 1.1-3.1-0.7-5.2-4.5-10.7-9.6 7.8-1.2 10.6-1.6 13.5-2.2 5.1-1 10.2-1.5 12.2 3.7zM724 386.1c-1.2-5.2-0.2-10.8-0.1-16.2 1.9-0.2 3.7-0.4 5.6-0.5M390.1 386.1c3.8 0.8 9.4 4.6 9.5 7.3 0.2 2.9-5 6.1-9.4 10.8-3.6-4.5-6.9-7-7.8-10.1-1.3-4.7 1.4-9.2 7.7-8zM455.5 178.3c0.5 2-4.8 7.3-7.3 7.3-8.3-0.1-11.6-4.7-8.6-12.3 7-2.2 13.8-2.9 15.9 5zM523.9 166.8c6.9 4.1 12.6 7.5 18.3 11-17.7 3.5-17.7 3.5-18.3-11zM587.1 270.1c-0.1-0.6 1.6-1.3 3.4-2.8 3.5 1.9 7.4 4 11.2 6.1 0 1.7 0 3.3 0.1 5-4.1 0.6-9 2.6-12.2 1.3-2.1-0.6-2-6.2-2.5-9.6zM780.8 433c-0.8-8.1-0.8-8.1 4.8-14.1 6 10.5 6 10.5-4.8 14.1zM317.2 183.4c8.3 1.9 14.1 3.1 21.4 4.7-12.7 7.7-12.7 7.7-21.4-4.7zM459.7 238c7.5-1.7 13-2.9 20.5-4.6-6.4 12.3-6.8 12.4-20.5 4.6zM465.9 362.8c2.8 3.9 4.8 7.9-0.3 11.1-1.3 0.8-6.6-0.7-7.3-2.2-2.3-5.1 1.1-7.8 7.6-8.9zM689.5 294.9c1.5-5.1 2.9-10.2 4.6-16.2 7.6 8.6 7.6 8.6-4.6 16.2zM493.6 174.8c-2.2-3.2-4.3-6.5-8.4-12.5 13.2-0.4 14.8 3.8 12.3 10.5-0.2 0.6-1.7 0.9-3.9 2zM257.9 199.1l-4-14c10.5 5.7 10.5 5.7 4 14zM698.5 369.5c2.4-3.3 4.8-6.7 8.3-11.6 5.6 9 2.4 12.2-4.4 13.9-1.3-0.7-2.6-1.5-3.9-2.3zM755 284.9c3.6-4.8 6.6-8.8 11.6-15.6-1.9 13.3-1.9 13.3-11.6 15.6zM389.7 221.3c-0.4-2.9-1.2-5.9-0.8-8.8 0-0.6 3.9-1 6-1.4 0.3 3 0.5 6.1 0.8 9.2-2.1 0.3-4 0.6-6 1zM320 298.7c-1 0.2-2.5-1.5-3.7-2.3 1.8-1.8 3.4-4 5.6-5.1 0.9-0.4 3.4 1.6 7.1 3.6-4.4 1.9-6.6 3.3-9 3.8zM355.7 231c8.5-7.7 8.5-7.7 15.2 0.7-5.3-0.2-9.5-0.4-15.2-0.7zM728.3 242.1c1.2-1 2.5-2 3.7-3M722.4 153.5c-0.7 1.1-1.5 2.3-2.2 3.4l-9.6-4.5c0.6-1 1.3-2.1 1.9-3.1 1.7 0.3 3.5 0.4 5 1 1.7 0.8 3.3 2.1 4.9 3.2z" fill="#09A7AF" p-id="21365"></path><path d="M820.4 512.3H203.6c-12.5 0-24.2-5.6-32.1-15.3-7.9-9.7-10.9-22.3-8.3-34.6l65.5-306.1c4-18.9 21-32.6 40.4-32.6h43.1c6.6 0 12 5.4 12 12s-5.4 12-12 12h-43.1c-8.1 0-15.2 5.7-16.9 13.7l-65.5 306c-1.1 5.1 0.2 10.4 3.5 14.5s8.2 6.4 13.4 6.4h616.8c5.2 0 10.1-2.3 13.4-6.4s4.6-9.4 3.5-14.5l-65.5-306c-1.7-7.9-8.8-13.7-16.9-13.7H364.5c-6.6 0-12-5.4-12-12s5.4-12 12-12h390.4c19.3 0 36.3 13.7 40.4 32.6l65.5 306.1c2.6 12.2-0.4 24.9-8.3 34.6-7.9 9.7-19.6 15.3-32.1 15.3z" fill="#3D6072" p-id="21366"></path><path d="M710.4 928.1H314.6c-10.8 0-19.5-8.7-19.5-19.5 0-21.1 17.1-38.2 38.2-38.2h358.5c21.1 0 38.2 17.1 38.2 38.2-0.1 10.8-8.8 19.5-19.6 19.5z" fill="#EAD9C3" p-id="21367"></path><path d="M388.6 908.6c0-21.1 17.1-38.2 38.2-38.2h-91.3c-21.1 0-38.2 17.1-38.2 38.2 0 10.8 8.7 19.5 19.5 19.5h91.3c-10.7 0-19.5-8.7-19.5-19.5z" fill="#EDE6DD" p-id="21368"></path><path d="M634.1 908.6c0-21.1-17.1-38.2-38.2-38.2h91.3c21.1 0 38.2 17.1 38.2 38.2 0 10.8-8.7 19.5-19.5 19.5h-91.3c10.8 0 19.5-8.7 19.5-19.5z" fill="#D6C8B3" p-id="21369"></path><path d="M389.742113 930.233505a2.6 2.6 0 1 0 4.991471-1.457812 2.6 2.6 0 1 0-4.991471 1.457812Z" fill="#686767" p-id="21370"></path><path d="M629.069049 925.773143a2.6 2.6 0 1 0 1.458073-4.991395 2.6 2.6 0 1 0-1.458073 4.991395Z" fill="#AEAFAF" p-id="21371"></path><path d="M529.068308 928.974155a2.6 2.6 0 1 0 1.458073-4.991395 2.6 2.6 0 1 0-1.458073 4.991395Z" fill="#AEAFAF" p-id="21372"></path><path d="M424.030534 925.34591a2.6 2.6 0 1 0 5.157365-0.664516 2.6 2.6 0 1 0-5.157365 0.664516Z" fill="#AEAFAF" p-id="21373"></path><path d="M561.62584 924.242747a2.6 2.6 0 1 0 5.157365-0.664517 2.6 2.6 0 1 0-5.157365 0.664517Z" fill="#AEAFAF" p-id="21374"></path><path d="M689.8 929.8m-2.6 0a2.6 2.6 0 1 0 5.2 0 2.6 2.6 0 1 0-5.2 0Z" fill="#686767" p-id="21375"></path><path d="M335.743908 875.195851a2.6 2.6 0 1 0 0.665057-5.157296 2.6 2.6 0 1 0-0.665057 5.157296Z" fill="#686767" p-id="21376"></path><path d="M350.825653 892.534429a2.6 2.6 0 1 0 4.991471-1.457812 2.6 2.6 0 1 0-4.991471 1.457812Z" fill="#686767" p-id="21377"></path><path d="M614.654937 908.184394a2.6 2.6 0 1 0 0.665057-5.157296 2.6 2.6 0 1 0-0.665057 5.157296Z" fill="#686767" p-id="21378"></path><path d="M609.17792 878.900977a2.6 2.6 0 1 0 1.458074-4.991394 2.6 2.6 0 1 0-1.458074 4.991394Z" fill="#AEAFAF" p-id="21379"></path><path d="M461.20836 896.917601a2.6 2.6 0 1 0 3.409109-3.926573 2.6 2.6 0 1 0-3.409109 3.926573Z" fill="#686767" p-id="21380"></path><path d="M533.013188 895.912022a2.6 2.6 0 1 0 1.458073-4.991395 2.6 2.6 0 1 0-1.458073 4.991395Z" fill="#AEAFAF" p-id="21381"></path><path d="M393.906449 901.35524a2.6 2.6 0 1 0 4.912426-1.705307 2.6 2.6 0 1 0-4.912426 1.705307Z" fill="#AEAFAF" p-id="21382"></path><path d="M658.007017 901.366611a2.6 2.6 0 1 0 4.912427-1.705306 2.6 2.6 0 1 0-4.912427 1.705306Z" fill="#AEAFAF" p-id="21383"></path><path d="M709.9 940.1H314.1c-17.4 0-31.5-14.1-31.5-31.5 0-27.7 22.5-50.2 50.2-50.2h188.3c6.6 0 12 5.4 12 12s-5.4 12-12 12H332.8c-14.4 0-26.2 11.7-26.2 26.2 0 4.1 3.4 7.5 7.5 7.5h395.8c4.1 0 7.5-3.4 7.5-7.5 0-14.4-11.7-26.2-26.2-26.2H560.1c-6.6 0-12-5.4-12-12s5.4-12 12-12h131.1c27.7 0 50.2 22.5 50.2 50.2 0 17.4-14.1 31.5-31.5 31.5zM578.8 147.4H445.2c-6.6 0-12-5.4-12-12v-29.5c0-12.1 9.9-22 22-22h113.7c12.1 0 22 9.9 22 22v29.5c-0.1 6.6-5.4 12-12.1 12z m-121.6-24h109.7v-15.5H457.2v15.5z" fill="#3D6072" p-id="21384"></path><path d="M225.758 461.61l9.758-9.757 9.758 9.758-9.758 9.758zM314.838 461.564l9.758-9.758 9.758 9.758-9.758 9.758zM492.856 461.613l9.758-9.758 9.758 9.758-9.758 9.758zM403.847 461.589l9.758-9.758 9.757 9.758-9.757 9.758zM759.953 461.613l9.758-9.758 9.758 9.758-9.758 9.758zM581.935 461.563l9.758-9.758 9.758 9.758-9.758 9.758zM670.944 461.59l9.758-9.759 9.758 9.758-9.758 9.758z" fill="#E8E8E8" p-id="21385"></path></svg>