<?xml version="1.0" standalone="no"?><!DOCTYPE svg PUBLIC "-//W3C//DTD SVG 1.1//EN" "http://www.w3.org/Graphics/SVG/1.1/DTD/svg11.dtd"><svg t="1653011639687" class="icon" viewBox="0 0 1024 1024" version="1.1" xmlns="http://www.w3.org/2000/svg" p-id="14538" xmlns:xlink="http://www.w3.org/1999/xlink" width="128" height="128"><defs><style type="text/css">@font-face { font-family: feedback-iconfont; src: url("//at.alicdn.com/t/font_1031158_u69w8yhxdu.woff2?t=1630033759944") format("woff2"), url("//at.alicdn.com/t/font_1031158_u69w8yhxdu.woff?t=1630033759944") format("woff"), url("//at.alicdn.com/t/font_1031158_u69w8yhxdu.ttf?t=1630033759944") format("truetype"); }
</style></defs><path d="M845.96 231.1h-675.3c-30.35 0-54.95-24.6-54.95-54.95v-11.3c0-30.35 24.6-54.95 54.95-54.95h675.3c30.35 0 54.95 24.6 54.95 54.95v11.3c0 30.35-24.6 54.95-54.95 54.95z" fill="#B1F1A8" p-id="14539"></path><path d="M845.96 242.27h-675.3c-36.46 0-66.12-29.66-66.12-66.12v-11.3c0-36.46 29.66-66.12 66.12-66.12h675.3c36.46 0 66.12 29.66 66.12 66.12v11.3c0 36.46-29.66 66.12-66.12 66.12z m-675.3-121.2c-24.14 0-43.78 19.64-43.78 43.78v11.3c0 24.14 19.64 43.78 43.78 43.78h675.3c24.14 0 43.78-19.64 43.78-43.78v-11.3c0-24.14-19.64-43.78-43.78-43.78h-675.3z" fill="#635DAF" p-id="14540"></path><path d="M273.03 558.62h-4.28c-18.51 0-33.51-15-33.51-33.51V221.62c0-18.51 15-33.51 33.51-33.51h4.28c18.51 0 33.51 15 33.51 33.51v303.49c0 18.51-15 33.51-33.51 33.51z" fill="#FFE094" p-id="14541"></path><path d="M273.03 569.79h-4.28c-24.64 0-44.68-20.04-44.68-44.68V221.62c0-24.64 20.04-44.68 44.68-44.68h4.28c24.64 0 44.68 20.04 44.68 44.68v303.49c0 24.64-20.04 44.68-44.68 44.68z m-4.28-370.51c-12.32 0-22.34 10.02-22.34 22.34v303.49c0 12.32 10.02 22.34 22.34 22.34h4.28c12.32 0 22.34-10.02 22.34-22.34V221.62c0-12.32-10.02-22.34-22.34-22.34h-4.28z" fill="#635DAF" p-id="14542"></path><path d="M235.25 268.67h71.29" fill="#FFFDFD" p-id="14543"></path><path d="M235.25 257.5h71.3v22.34h-71.3z" fill="#635DAF" p-id="14544"></path><path d="M270.89 117.9l0.1 73.91" fill="#FFFDFD" p-id="14545"></path><path d="M259.721 117.915l22.34-0.03 0.098 73.9-22.34 0.03z" fill="#635DAF" p-id="14546"></path><path d="M271.75 559.85l0.1 73.9" fill="#FFFDFD" p-id="14547"></path><path d="M260.581 559.865l22.34-0.03 0.098 73.9-22.34 0.03z" fill="#635DAF" p-id="14548"></path><path d="M508.21 559.85l0.1 73.9" fill="#FFFDFD" p-id="14549"></path><path d="M497.041 559.865l22.34-0.03 0.099 73.9-22.34 0.03z" fill="#635DAF" p-id="14550"></path><path d="M745.73 548.77l0.09 73.9" fill="#FFFDFD" p-id="14551"></path><path d="M734.562 548.785l22.34-0.03 0.097 73.9-22.34 0.03z" fill="#635DAF" p-id="14552"></path><path d="M235.25 365.85h71.29" fill="#FFFDFD" p-id="14553"></path><path d="M235.25 354.68h71.3v22.34h-71.3z" fill="#635DAF" p-id="14554"></path><path d="M235.25 463.04h71.29" fill="#FFFDFD" p-id="14555"></path><path d="M235.25 451.87h71.3v22.34h-71.3z" fill="#635DAF" p-id="14556"></path><path d="M510.45 558.62h-4.28c-18.51 0-33.51-15-33.51-33.51V221.62c0-18.51 15-33.51 33.51-33.51h4.28c18.51 0 33.51 15 33.51 33.51v303.49c0 18.51-15 33.51-33.51 33.51z" fill="#FFE094" p-id="14557"></path><path d="M510.45 569.79h-4.28c-24.64 0-44.68-20.04-44.68-44.68V221.62c0-24.64 20.04-44.68 44.68-44.68h4.28c24.64 0 44.68 20.04 44.68 44.68v303.49c0 24.64-20.05 44.68-44.68 44.68z m-4.28-370.51c-12.32 0-22.34 10.02-22.34 22.34v303.49c0 12.32 10.02 22.34 22.34 22.34h4.28c12.32 0 22.34-10.02 22.34-22.34V221.62c0-12.32-10.02-22.34-22.34-22.34h-4.28z" fill="#635DAF" p-id="14558"></path><path d="M508.26 109.9l0.1 73.9" fill="#FFE094" p-id="14559"></path><path d="M497.091 109.915l22.34-0.03 0.098 73.9-22.34 0.03z" fill="#635DAF" p-id="14560"></path><path d="M472.66 463.04h71.3" fill="#FFE094" p-id="14561"></path><path d="M472.66 451.87h71.3v22.34h-71.3z" fill="#635DAF" p-id="14562"></path><path d="M472.66 365.85h71.3" fill="#FFE094" p-id="14563"></path><path d="M472.66 354.68h71.3v22.34h-71.3z" fill="#635DAF" p-id="14564"></path><path d="M474.8 268.67h71.3" fill="#FFE094" p-id="14565"></path><path d="M474.8 257.5h71.3v22.34h-71.3z" fill="#635DAF" p-id="14566"></path><path d="M747.87 558.62h-4.28c-18.51 0-33.51-15-33.51-33.51V221.62c0-18.51 15-33.51 33.51-33.51h4.28c18.51 0 33.51 15 33.51 33.51v303.49c-0.01 18.51-15.01 33.51-33.51 33.51z" fill="#FFE094" p-id="14567"></path><path d="M747.87 569.79h-4.28c-24.64 0-44.68-20.04-44.68-44.68V221.62c0-24.64 20.04-44.68 44.68-44.68h4.28c24.64 0 44.68 20.04 44.68 44.68v303.49c-0.01 24.64-20.05 44.68-44.68 44.68z m-4.28-370.51c-12.32 0-22.34 10.02-22.34 22.34v303.49c0 12.32 10.02 22.34 22.34 22.34h4.28c12.32 0 22.34-10.02 22.34-22.34V221.62c0-12.32-10.02-22.34-22.34-22.34h-4.28z" fill="#635DAF" p-id="14568"></path><path d="M745.68 109.9l0.1 73.9" fill="#FFE094" p-id="14569"></path><path d="M734.512 109.915l22.34-0.03 0.097 73.9-22.34 0.03z" fill="#635DAF" p-id="14570"></path><path d="M710.08 463.04h71.29" fill="#FFE094" p-id="14571"></path><path d="M710.08 451.87h71.3v22.34h-71.3z" fill="#635DAF" p-id="14572"></path><path d="M710.08 365.85h71.29" fill="#FFE094" p-id="14573"></path><path d="M710.08 354.68h71.3v22.34h-71.3z" fill="#635DAF" p-id="14574"></path><path d="M710.08 268.67h71.29" fill="#FFE094" p-id="14575"></path><path d="M710.08 257.5h71.3v22.34h-71.3z" fill="#635DAF" p-id="14576"></path><path d="M173.06 773.93a98.74 140.17 0 1 0 197.48 0 98.74 140.17 0 1 0-197.48 0Z" fill="#FFFDFD" p-id="14577"></path><path d="M271.8 925.27c-30.11 0-58.15-16.26-78.95-45.79-19.96-28.34-30.96-65.83-30.96-105.55s10.99-77.21 30.96-105.55c20.8-29.53 48.84-45.79 78.95-45.79s58.15 16.26 78.95 45.79c19.96 28.34 30.96 65.83 30.96 105.55s-10.99 77.21-30.96 105.55c-20.8 29.53-48.84 45.79-78.95 45.79z m0-280.35c-22.64 0-44.19 12.9-60.69 36.32-17.34 24.61-26.88 57.53-26.88 92.69s9.55 68.08 26.88 92.68c16.5 23.42 38.05 36.32 60.69 36.32s44.19-12.9 60.69-36.32c17.34-24.61 26.88-57.53 26.88-92.68s-9.55-68.08-26.88-92.69c-16.5-23.42-38.05-36.32-60.69-36.32z" fill="#635DAF" p-id="14578"></path><path d="M223.68 773.93a48.12 140.17 0 1 0 96.24 0 48.12 140.17 0 1 0-96.24 0Z" fill="#FFFDFD" p-id="14579"></path><path d="M271.8 925.27c-38.92 0-59.29-76.13-59.29-151.34s20.37-151.34 59.29-151.34 59.29 76.14 59.29 151.34-20.36 151.34-59.29 151.34z m0-280.35c-5.95 0-15.51 10.36-23.46 33.51-8.7 25.34-13.49 59.25-13.49 95.49 0 36.24 4.79 70.15 13.49 95.49 7.95 23.15 17.51 33.51 23.46 33.51s15.51-10.36 23.46-33.51c8.7-25.34 13.49-59.25 13.49-95.49 0-36.24-4.79-70.15-13.49-95.49-7.94-23.14-17.51-33.51-23.46-33.51z" fill="#635DAF" p-id="14580"></path><path d="M271.79 644.1l0.36 265.74" fill="#FFFDFD" p-id="14581"></path><path d="M260.624 644.115l22.34-0.03 0.352 265.74-22.34 0.03z" fill="#635DAF" p-id="14582"></path><path d="M567.86 914.1h-119.1c-10.23 0-18.52-8.29-18.52-18.52V652.27c0-10.23 8.29-18.52 18.52-18.52h119.1c10.23 0 18.52 8.29 18.52 18.52v243.31c0 10.23-8.29 18.52-18.52 18.52z" fill="#EDECED" p-id="14583"></path><path d="M567.86 925.27h-119.1c-16.37 0-29.69-13.32-29.69-29.69V652.27c0-16.37 13.32-29.69 29.69-29.69h119.1c16.37 0 29.69 13.32 29.69 29.69v243.31c0 16.37-13.32 29.69-29.69 29.69z m-119.1-280.35c-4.05 0-7.35 3.3-7.35 7.35v243.31c0 4.05 3.3 7.35 7.35 7.35h119.1c4.05 0 7.35-3.3 7.35-7.35V652.27c0-4.05-3.3-7.35-7.35-7.35h-119.1z" fill="#635DAF" p-id="14584"></path><path d="M470.45 817.35h-1.43c-6.17 0-11.17-5-11.17-11.17V692.53c0-6.17 5-11.17 11.17-11.17h1.43c6.17 0 11.17 5 11.17 11.17v113.66c0 6.16-5 11.16-11.17 11.16z" fill="#635DAF" p-id="14585"></path><path d="M549.36 817.35h-1.43c-6.17 0-11.17-5-11.17-11.17V692.53c0-6.17 5-11.17 11.17-11.17h1.43c6.17 0 11.17 5 11.17 11.17v113.66c0 6.16-5 11.16-11.17 11.16z" fill="#635DAF" p-id="14586"></path><path d="M509.34 872.59h-1.43c-6.17 0-11.17-5-11.17-11.17V692.53c0-6.17 5-11.17 11.17-11.17h1.43c6.17 0 11.17 5 11.17 11.17v168.89c0 6.16-5 11.17-11.17 11.17z" fill="#635DAF" p-id="14587"></path><path d="M722.67 903.14h-1.43c-6.17 0-11.17-5-11.17-11.17V644.92c0-6.17 5-11.17 11.17-11.17h1.43c6.17 0 11.17 5 11.17 11.17v247.05c0 6.17-5 11.17-11.17 11.17z" fill="#635DAF" p-id="14588"></path><path d="M777.81 903.14h-1.43c-6.17 0-11.17-5-11.17-11.17V644.92c0-6.17 5-11.17 11.17-11.17h1.43c6.17 0 11.17 5 11.17 11.17v247.05c0 6.17-5 11.17-11.17 11.17z" fill="#635DAF" p-id="14589"></path><path d="M908.29 169.35v2.3c0 6.17-5 11.17-11.17 11.17h-80.08c-6.17 0-11.17-5-11.17-11.17v-2.3c0-6.17 5-11.17 11.17-11.17h80.08c6.17 0 11.17 5 11.17 11.17z" fill="#635DAF" p-id="14590"></path><path d="M218.13 169.35v2.3c0 6.17-5 11.17-11.17 11.17h-80.08c-6.17 0-11.17-5-11.17-11.17v-2.3c0-6.17 5-11.17 11.17-11.17h80.08c6.17 0 11.17 5 11.17 11.17z" fill="#635DAF" p-id="14591"></path><path d="M435.26 169.35v2.3c0 6.17-5 11.17-11.17 11.17h-80.08c-6.17 0-11.17-5-11.17-11.17v-2.3c0-6.17 5-11.17 11.17-11.17h80.08c6.17 0 11.17 5 11.17 11.17z" fill="#635DAF" p-id="14592"></path><path d="M680.55 169.35v2.3c0 6.17-5 11.17-11.17 11.17H589.3c-6.17 0-11.17-5-11.17-11.17v-2.3c0-6.17 5-11.17 11.17-11.17h80.08c6.17 0 11.17 5 11.17 11.17z" fill="#635DAF" p-id="14593"></path><path d="M832.54 925.27c-6.17 0-11.17-5-11.17-11.17V749.72c0-28.75-7.54-55.64-21.24-75.71-12.8-18.76-29.4-29.09-46.73-29.09h-9.63c-17.33 0-33.93 10.33-46.73 29.09-13.69 20.07-21.24 46.95-21.24 75.71V914.1c0 6.17-5 11.17-11.17 11.17s-11.17-5-11.17-11.17V749.72c0-33.2 8.92-64.56 25.12-88.3 17.09-25.05 40.24-38.84 65.19-38.84h9.63c24.94 0 48.09 13.79 65.19 38.84 16.2 23.74 25.12 55.1 25.12 88.3V914.1c0 6.17-5 11.17-11.17 11.17z" fill="#635DAF" p-id="14594"></path></svg>