<?xml version="1.0" standalone="no"?><!DOCTYPE svg PUBLIC "-//W3C//DTD SVG 1.1//EN" "http://www.w3.org/Graphics/SVG/1.1/DTD/svg11.dtd"><svg t="1653009789103" class="icon" viewBox="0 0 1024 1024" version="1.1" xmlns="http://www.w3.org/2000/svg" p-id="5949" xmlns:xlink="http://www.w3.org/1999/xlink" width="128" height="128"><defs><style type="text/css">@font-face { font-family: feedback-iconfont; src: url("//at.alicdn.com/t/font_1031158_u69w8yhxdu.woff2?t=1630033759944") format("woff2"), url("//at.alicdn.com/t/font_1031158_u69w8yhxdu.woff?t=1630033759944") format("woff"), url("//at.alicdn.com/t/font_1031158_u69w8yhxdu.ttf?t=1630033759944") format("truetype"); }
</style></defs><path d="M 891.554 775.204 H 129.105 l -0.145256 -10.3132 v -2.61461 c 0 -75.6785 39.2192 -139.009 113.591 -183.022 c 67.6893 -40.2361 162.833 -62.3149 267.852 -62.3149 s 200.162 22.0789 267.852 62.3149 c 74.3711 44.1578 113.591 107.489 113.591 183.022 v 2.61461 l -0.290511 10.3132 Z m -743.711 -18.8833 h 724.974 c -4.50294 -152.373 -184.33 -220.644 -362.413 -220.644 s -358.056 68.2703 -362.559 220.644 Z" fill="#5d8a00" p-id="5950"></path><path d="M 128.959 766.052 c -6.24602 -228.633 -40.5265 -263.929 -55.1972 -278.891 c -2.03358 -2.03358 -3.77666 -3.92192 -5.51972 -5.95551 c -1.01679 -1.30731 -3.05038 -3.63142 -5.51972 -6.24602 c -20.4811 -22.9506 -68.2703 -76.5499 -52.4375 -121.288 c 9.15114 -25.7105 37.6213 -42.7052 84.8295 -50.4039 c 39.2192 -8.2796 73.6448 -1.01679 102.26 21.6432 c 83.5223 65.801 89.3325 238.948 89.6232 246.208 l -18.8833 0.581024 c 0 -1.74307 -5.81024 -171.692 -82.3602 -231.974 c -24.1124 -19.0286 -53.4541 -24.9841 -86.8631 -17.8666 l -0.435769 0.145256 c -39.9454 6.53652 -63.6223 19.3191 -70.304 38.2024 c -12.2014 34.2803 32.1016 83.8128 48.6606 102.55 c 2.90511 3.19563 4.93872 5.51972 6.24602 7.2628 c 1.01679 1.30731 2.46934 2.75988 4.06718 4.50294 c 17.576 18.0119 54.1805 55.4878 60.5717 291.528 h -18.7379 Z M 890.537 766.052 l -18.8833 -0.581024 c 6.39127 -236.042 42.9958 -273.517 60.5717 -291.528 c 1.74307 -1.74307 3.19563 -3.19563 4.06718 -4.50294 c 1.30731 -1.74307 3.34089 -4.06718 6.24602 -7.2628 c 16.7046 -18.5927 60.8624 -68.2703 48.6606 -102.55 c -6.68178 -18.7379 -30.3585 -31.6658 -70.304 -38.2024 l -0.435769 -0.145256 c -33.6995 -7.11754 -63.041 -1.16204 -87.1537 17.8666 c -76.4047 60.136 -82.0697 228.778 -82.0697 230.375 l -18.8833 -0.581024 c 0.145256 -7.2628 5.95551 -179.246 89.3325 -244.756 c 28.7607 -22.6599 63.3316 -29.9227 102.55 -21.6432 c 47.2082 7.69856 75.6785 24.6934 84.8295 50.4039 c 15.8329 44.7388 -31.9563 98.4835 -52.4375 121.288 c -2.46934 2.75988 -4.50294 5.08396 -5.51972 6.24602 c -1.59782 2.03358 -3.48614 3.92192 -5.51972 5.95551 c -14.5256 15.6877 -48.806 50.8396 -55.0521 279.617 Z" fill="#5d8a00" p-id="5951"></path><path d="M 242.259 380.398 l -18.8833 -1.16204 c 0.145256 -2.75988 4.35769 -67.9799 41.979 -134.361 c 22.2241 -39.2192 51.4207 -70.4492 87.0083 -93.109 c 44.3031 -28.0343 98.1932 -42.4148 160.363 -42.7052 h 1.30731 c 61.5885 0 114.898 14.0898 158.618 41.8337 c 35.2973 22.3695 64.0579 53.7447 85.8464 92.964 c 36.6045 66.382 39.9454 131.891 40.0908 134.651 l -18.8833 0.871537 c 0 -0.581024 -3.34089 -64.3483 -38.057 -126.953 c -45.9009 -82.5055 -122.451 -124.341 -227.471 -124.341 h -1.30731 c -105.747 0.290511 -183.458 42.5601 -230.666 125.503 c -35.733 62.6053 -39.9454 126.082 -39.9454 126.808 Z M 128.234 906.952 c -8.13433 0 -16.5593 -0.871537 -23.5315 -3.92192 c -5.95551 -2.46934 -10.3132 -7.69856 -11.3301 -13.3636 c -0.871537 -4.93872 0.871537 -9.87742 4.79346 -13.5087 c 43.2864 -39.2192 31.0848 -108.216 30.9396 -108.797 l 18.5927 -3.48614 c 0.581024 3.19563 13.5087 76.1141 -32.973 122.596 c 6.97229 1.88833 17.4307 1.88833 31.3753 0.145256 c 6.97229 -0.871537 10.8942 -2.61461 12.492 -5.37447 c 5.08396 -9.15114 6.53652 -30.6491 8.13433 -55.4878 c 1.16204 -17.576 2.46934 -37.4761 5.22922 -59.2645 l 18.7379 2.46934 c -2.75988 21.0623 -4.06718 40.6718 -5.08396 57.9572 c -1.88833 29.4869 -3.34089 50.6945 -10.4585 63.4768 c -6.82703 12.3469 -21.6432 14.2351 -26.4365 14.8161 c -6.10077 1.01679 -13.2185 1.74307 -20.4811 1.74307 Z M 891.991 906.226 c -7.2628 0 -14.3803 -0.72628 -20.1905 -1.45256 c -4.79346 -0.581024 -19.6096 -2.61461 -26.4365 -14.8161 c -7.11754 -12.7826 -8.57012 -34.1352 -10.4585 -63.4768 c -1.16204 -17.2853 -2.46934 -36.895 -5.08396 -57.9572 l 18.7379 -2.46934 c 2.75988 21.6432 4.06718 41.6885 5.22922 59.2645 c 1.59782 24.9841 3.05038 46.4821 8.13433 55.4878 c 1.59782 2.75988 5.51972 4.50294 12.492 5.37447 c 13.7994 1.88833 24.4031 1.74307 31.3753 -0.145256 c -46.4821 -46.4821 -33.5543 -119.4 -32.973 -122.596 l 18.5927 3.48614 l -9.2964 -1.74307 l 9.2964 1.74307 c -0.145256 0.72628 -12.2014 69.7229 30.9396 108.797 c 3.92192 3.63142 5.66497 8.42485 4.79346 13.5087 c -1.01679 5.66497 -5.37447 10.8942 -11.3301 13.3636 c -7.40805 2.75988 -15.6877 3.63142 -23.8221 3.63142 Z M 332.898 867.152 h -28.3249 c -3.92192 0 -7.69856 -1.74307 -10.3132 -4.64821 c -2.61461 -3.05038 -3.77666 -6.97229 -3.19563 -10.8942 l 12.9278 -86.2822 l 18.7379 2.75988 l -11.911 80.1813 h 17.1403 l 6.10077 -81.7793 l 18.8833 1.45256 l -6.53652 86.7178 c -0.581024 6.97229 -6.39127 12.492 -13.5087 12.492 Z M 716.667 866.715 h -28.3249 c -6.97229 0 -12.9278 -5.51972 -13.5087 -12.492 l -6.53652 -86.7178 l 18.8833 -1.45256 l 6.10077 81.7793 h 17.1403 l -11.911 -80.1813 l 18.7379 -2.75988 l 12.9278 86.2822 c 0.581024 3.92192 -0.581024 7.84383 -3.19563 10.8942 c -2.75988 2.90511 -6.39127 4.64821 -10.3132 4.64821 Z" fill="#5d8a00" p-id="5952"></path><path d="M 313.435 866.426 c -36.0235 3.05038 -142.351 25.1291 -142.351 25.1291 H 848.995 l -137.994 -25.7105 c 0 0.145256 -297.484 -8.13433 -397.567 0.581024 Z" fill="#e6e6e6" p-id="5953"></path><path d="M 310.675 439.226 l -23.8221 -2.17884 c 0.435769 -3.34089 13.3636 -80.6171 152.955 -121.724 l 8.42485 17.7213 c -125.937 37.0403 -137.412 105.455 -137.557 106.182 Z M 700.252 437.774 c 0 -0.145256 -2.75988 -17.576 -19.9 -39.0737 c -15.8329 -20.0453 -47.6439 -47.7893 -109.233 -67.1084 l 7.84383 -17.7213 c 131.023 40.9622 143.223 118.385 143.658 121.724 l -22.3695 2.17884 Z M 511.853 327.525 l -29.7775 -42.7052 l 29.3417 -48.6606 l 28.6155 46.7725 Z" fill="#ff917d" p-id="5954"></path><path d="M 512 332.754 l -33.4089 -47.9346 l 32.8279 -54.3258 l 31.9563 52.4375 l -31.3753 49.8229 Z m -26.4365 -48.0798 l 26.2914 37.6213 l 24.8388 -39.3644 l -25.2746 -41.1075 l -25.8557 42.8506 Z" fill="#ff917d" p-id="5955"></path></svg>