<?xml version="1.0" standalone="no"?><!DOCTYPE svg PUBLIC "-//W3C//DTD SVG 1.1//EN" "http://www.w3.org/Graphics/SVG/1.1/DTD/svg11.dtd"><svg t="1651804922376" class="icon" viewBox="0 0 1024 1024" version="1.1" xmlns="http://www.w3.org/2000/svg" p-id="7674" xmlns:xlink="http://www.w3.org/1999/xlink" width="48" height="48"><defs><style type="text/css">@font-face { font-family: feedback-iconfont; src: url("//at.alicdn.com/t/font_1031158_u69w8yhxdu.woff2?t=1630033759944") format("woff2"), url("//at.alicdn.com/t/font_1031158_u69w8yhxdu.woff?t=1630033759944") format("woff"), url("//at.alicdn.com/t/font_1031158_u69w8yhxdu.ttf?t=1630033759944") format("truetype"); }
</style></defs><path d="M529.075399 63.978127c57.933457 0 114.12934 11.343349 167.027108 33.716916 51.101865 21.614274 97.002264 52.5611 136.425136 91.980901 39.421848 39.420825 70.373791 85.319178 91.991134 136.420019 22.376637 52.896744 33.723056 109.09672 33.723056 167.040411 0 57.936527-11.346419 114.12934-33.723056 167.025061-21.618367 51.096748-52.569286 96.992031-91.991134 136.411833-39.422871 39.418778-85.326341 70.365604-136.425136 91.977831-52.894697 22.37152-109.090581 33.715893-167.027108 33.715893-57.936527 0-114.130364-11.343349-167.021991-33.715893-51.096748-21.611204-96.987938-52.555983-136.40774-91.976808-39.416731-39.418778-70.361511-85.313038-91.974761-136.411833-22.369473-52.892651-33.712823-109.087511-33.712823-167.026084 0-57.944713 11.343349-114.145713 33.713846-167.041434 21.61325-51.101865 52.557006-97.000218 91.974761-136.420019 39.418778-39.418778 85.310991-70.366627 136.406716-91.979878C414.945035 75.321476 471.138872 63.978127 529.075399 63.978127M529.075399 43.512003c-248.28683 0-449.583438 201.302749-449.583438 449.624371 0 248.295016 201.296609 449.593671 449.583438 449.593671 248.281713 0 449.635627-201.301725 449.635627-449.593671C978.711026 244.814752 777.357112 43.512003 529.075399 43.512003L529.075399 43.512003z" p-id="7675" fill="#407ef7"></path><path d="M656.6254 288.901853l-55.075363 0L448.852286 288.901853l-55.123458 0-15.491833 26.906813 22.13002 182.624341L434.61912 498.433006l181.166129 0 34.249035 0 22.131043-182.624341L656.6254 288.901853 656.6254 288.901853zM350.978165 653.241838l0 35.912931-47.328935 0 0-35.912931-38.373982 0L265.275247 329.238536l82.735329 0 27.91477 224.819348 17.502629-33.292244 36.111452 0 191.32449 0 36.113499 0 17.502629 33.292244 27.912723-224.819348 82.737376 0 0 324.004325-38.426171 0 0 35.912931-47.27777 0 0-35.912931-18.307971 0-12.674671-20.1182-29.321816 20.1182-18.258852 0L429.539428 653.242861l-18.256806 0-29.321816-20.1182-12.674671 20.1182L350.978165 653.242861z" p-id="7676" fill="#407ef7"></path></svg>