<?xml version="1.0" standalone="no"?><!DOCTYPE svg PUBLIC "-//W3C//DTD SVG 1.1//EN" "http://www.w3.org/Graphics/SVG/1.1/DTD/svg11.dtd"><svg t="1653011294065" class="icon" viewBox="0 0 1024 1024" version="1.1" xmlns="http://www.w3.org/2000/svg" p-id="9022" xmlns:xlink="http://www.w3.org/1999/xlink" width="128" height="128"><defs><style type="text/css">@font-face { font-family: feedback-iconfont; src: url("//at.alicdn.com/t/font_1031158_u69w8yhxdu.woff2?t=1630033759944") format("woff2"), url("//at.alicdn.com/t/font_1031158_u69w8yhxdu.woff?t=1630033759944") format("woff"), url("//at.alicdn.com/t/font_1031158_u69w8yhxdu.ttf?t=1630033759944") format("truetype"); }
</style></defs><path d="M989.395165 276.712383H737.562901c-2.147015 0-3.788851-1.641835-3.788851-3.788851s1.641835-3.788851 3.788851-3.78885H989.395165c0.631475 0 1.01036-0.126295 1.26295-0.25259v-62.642329c-0.25259-0.126295-0.631475-0.25259-1.26295-0.25259H34.604835c-0.631475 0-1.01036 0.126295-1.26295 0.25259v62.642329c0.25259 0.126295 0.631475 0.25259 1.26295 0.25259h495.581647c2.147015 0 3.788851 1.641835 3.788851 3.78885s-1.641835 3.788851-3.788851 3.788851H34.604835c-4.925506 0-8.840651-3.157375-8.840651-7.198816v-63.778984c0-4.041441 3.915146-7.198816 8.840651-7.198816h954.79033c4.925506 0 8.840651 3.157375 8.840651 7.198816v63.778984c0 4.041441-3.915146 7.198816-8.840651 7.198816z" fill="#5BBAB3" p-id="9023"></path><path d="M418.036507 378.253577m-6.946226 0a6.946226 6.946226 0 1 0 13.892452 0 6.946226 6.946226 0 1 0-13.892452 0Z" fill="#5BBAB3" p-id="9024"></path><path d="M437.864825 378.253577m-6.946226 0a6.946226 6.946226 0 1 0 13.892452 0 6.946226 6.946226 0 1 0-13.892452 0Z" fill="#5BBAB3" p-id="9025"></path><path d="M457.566848 378.253577m-6.946226 0a6.946226 6.946226 0 1 0 13.892452 0 6.946226 6.946226 0 1 0-13.892452 0Z" fill="#5BBAB3" p-id="9026"></path><path d="M418.036507 395.303404m-6.946226 0a6.946226 6.946226 0 1 0 13.892452 0 6.946226 6.946226 0 1 0-13.892452 0Z" fill="#5BBAB3" p-id="9027"></path><path d="M437.864825 395.303404m-6.946226 0a6.946226 6.946226 0 1 0 13.892452 0 6.946226 6.946226 0 1 0-13.892452 0Z" fill="#5BBAB3" p-id="9028"></path><path d="M457.566848 395.303404m-6.946226 0a6.946226 6.946226 0 1 0 13.892452 0 6.946226 6.946226 0 1 0-13.892452 0Z" fill="#5BBAB3" p-id="9029"></path><path d="M418.036507 412.353231m-6.946226 0a6.946226 6.946226 0 1 0 13.892452 0 6.946226 6.946226 0 1 0-13.892452 0Z" fill="#5BBAB3" p-id="9030"></path><path d="M437.864825 412.353231m-6.946226 0a6.946226 6.946226 0 1 0 13.892452 0 6.946226 6.946226 0 1 0-13.892452 0Z" fill="#5BBAB3" p-id="9031"></path><path d="M457.566848 412.353231m-6.946226 0a6.946226 6.946226 0 1 0 13.892452 0 6.946226 6.946226 0 1 0-13.892452 0Z" fill="#5BBAB3" p-id="9032"></path><path d="M355.646769 718.366058c-23.617168 0-46.223976-1.76813-62.010854-4.79921-16.544647-3.157375-23.996053-7.198816-23.996053-13.008387 0-4.167736 3.157375-9.472126 27.279724-13.639862 15.786877-2.652195 36.625555-4.167736 58.727183-4.167736 22.227923 0 43.066601 1.51554 58.727183 4.167736 24.122348 4.041441 27.279724 9.472126 27.279723 13.639862 0 5.809571-7.325111 9.851011-23.996053 13.008387-15.786877 3.03108-38.393685 4.799211-62.010853 4.79921z m-78.050321-17.807597c1.26295 1.01036 5.304391 3.28367 17.428712 5.683276 15.407992 2.904785 37.50962 4.546621 60.621609 4.54662s45.339911-1.641835 60.621608-4.54662c12.124322-2.27331 16.165762-4.672916 17.428712-5.683276-4.294031-3.788851-30.184509-10.103601-78.05032-10.103602-47.739517-0.126295-73.75629 6.314751-78.050321 10.103602z m156.605821 0.50518z" fill="#5BBAB3" p-id="9033"></path><path d="M294.26739 713.693143c-0.631475 0-1.389245-0.126295-1.894425-0.50518-4.925506-2.904785-10.482486-4.799211-16.165762-5.430686-2.02072-0.25259-3.662556-2.02072-3.409966-4.167736 0.25259-2.02072 2.02072-3.662556 4.167736-3.409965 6.819931 0.631475 13.513567 2.904785 19.323138 6.441046 1.76813 1.136655 2.399605 3.409965 1.26295 5.178095-0.75777 1.26295-2.02072 1.894425-3.283671 1.894426zM359.183029 973.355698h-7.072521l-0.126295-7.577701 3.662556-0.126295 3.662555 0.126295zM417.026147 713.693143c-1.26295 0-2.5259-0.631475-3.28367-1.768131-1.136655-1.76813-0.50518-4.167736 1.26295-5.178095 5.809571-3.53626 12.503207-5.809571 19.323137-6.441046 2.147015-0.25259 3.915146 1.26295 4.167736 3.409965 0.25259 2.02072-1.26295 3.915146-3.409966 4.167736-5.683276 0.631475-11.240257 2.399605-16.165762 5.430686-0.631475 0.126295-1.26295 0.378885-1.894425 0.378885zM443.926986 759.285644c-14.902812 0-29.931919-1.01036-44.582141-2.904786l-3.031081-0.378885-0.25259-3.03108c-0.126295-1.76813-0.25259-3.662556-0.25259-5.556981-0.25259-4.672916 0.126295-9.345831 1.01036-14.018747l0.50518-2.652195 2.652196-0.378885c15.281697-2.02072 30.815984-2.904785 46.223976-2.904786 19.196843 0 37.383325 1.26295 51.023187 3.662556 16.670942 2.77849 23.996053 6.567341 23.996053 12.250617 0 5.304391-6.567341 8.966946-21.217563 11.745436-13.766157 2.652195-32.836704 4.167736-53.927972 4.167736h-2.147015z m-40.540701-10.103602c14.145042 1.76813 28.542674 2.5259 42.814011 2.525901 20.333498 0 39.404045-1.51554 52.538727-4.041441 9.093241-1.76813 12.882092-3.409965 14.271337-4.420325-5.051801-3.157375-27.406019-8.335471-66.810064-8.335472-14.145042-0.126295-28.416379 0.75777-42.435126 2.399606-0.50518 3.157375-0.631475 6.314751-0.50518 9.598421 0 0.75777 0.126295 1.51554 0.126295 2.27331z m110.50814-5.178095z" fill="#5BBAB3" p-id="9034"></path><path d="M355.646769 973.229403h-0.126295C226.194376 968.430192 227.204736 913.112975 227.836211 876.48742c0.126295-4.041441 0.126295-7.703996 0-11.240257-0.50518-15.913172 7.703996-30.437099 23.617168-41.929945 11.745437-8.461766 23.364578-12.250617 23.869759-12.376912 1.26295-0.378885 30.563394-10.735076 32.584114-64.031574 0.631475-15.786877-4.672916-27.153429-15.660582-33.97336l-17.681302-10.861371 20.459792 3.915146c15.407992 2.904785 37.50962 4.546621 60.621609 4.54662s45.339911-1.641835 60.621608-4.54662l20.333498-3.915146-17.681303 10.861371c-7.830291 4.799211-12.882092 12.124322-14.776517 21.596448-0.75777 4.041441-1.136655 8.082881-0.884065 12.250617 0.126295 1.76813 0.126295 3.53626 0.25259 5.304391 0.126295 1.641835 0.25259 3.157375 0.50518 4.925505 1.01036 9.724716 3.409965 19.070548 7.325111 27.911199 9.472126 20.712383 23.869758 25.637889 24.501234 25.890479 0.50518 0.126295 12.124322 3.915146 23.869758 12.376912 15.913172 11.492847 24.122348 25.890479 23.617168 41.80365-0.126295 3.409965 0 7.198816 0 11.113962 0.631475 33.089295 1.641835 83.102121-98.004933 94.721263-8.966946 1.01036-18.944253 1.76813-29.679329 2.147015v0.25259z m29.300444-5.935866z m-78.555501-251.705969c5.430686 6.819931 9.598421 16.923532 9.093241 31.700049-2.147015 58.853478-36.372965 70.47262-37.888505 70.9778-0.378885 0.126295-43.192896 14.271337-42.308831 46.855451 0.126295 3.662556 0 7.451406 0 11.619142-0.631475 35.615195-1.51554 84.491367 120.232857 89.037987 10.482486-0.378885 20.207203-1.136655 28.921559-2.147015 41.424766-4.799211 67.946719-16.418352 80.955106-35.4889 10.987667-16.165762 10.735076-34.857425 10.356191-51.402072-0.126295-4.041441-0.126295-7.830291 0-11.492847 1.01036-32.457819-41.803651-46.602861-42.308831-46.855451-0.75777-0.25259-18.060187-5.935866-29.047854-29.931919-4.294031-9.598421-6.946226-19.828318-7.956586-30.310804-0.25259-1.76813-0.378885-3.409965-0.50518-5.178096-0.126295-1.76813-0.25259-3.662556-0.25259-5.556981-0.25259-4.672916 0.126295-9.345831 1.01036-14.018747 1.389245-6.819931 4.041441-12.755797 7.956586-17.681302-14.145042 1.76813-31.321164 2.77849-49.128761 2.77849-17.681302-0.126295-34.98372-1.136655-49.128762-2.904785z" fill="#5BBAB3" p-id="9035"></path><path d="M407.932906 790.480513h-0.25259c-2.147015-0.126295-3.662556-1.894425-3.536261-4.04144v-0.884066c0-0.631475 0.126295-1.26295 0.126295-1.894425v-0.126295c0.378885-9.851011-2.02072-17.807597-6.946226-23.490873-1.389245-1.641835-1.136655-4.041441 0.378885-5.304391 1.641835-1.389245 4.041441-1.136655 5.304391 0.378885 6.188456 7.198816 9.219536 16.923532 8.714356 28.668969 0 0.75777 0 1.51554-0.126295 2.27331v0.757771c0 2.02072-1.641835 3.662556-3.662555 3.662555zM449.231376 980.428219h-6.188455v-0.25259c-23.743463-1.01036-43.698076-4.167736-59.358659-9.345831-2.02072-0.631475-3.03108-2.77849-2.399605-4.799211 0.631475-2.02072 2.77849-3.03108 4.799211-2.399605 15.534287 5.178096 35.74149 8.209176 59.990133 9.093241 105.203749-3.915146 104.319684-45.971386 103.814504-76.787371-0.126295-3.53626-0.126295-6.819931 0-9.977306 0.884065-27.911199-35.867785-40.03552-36.24667-40.161815-1.26295-0.378885-31.321164-10.482486-33.215589-62.010854-0.75777-20.459793 8.840651-30.689689 16.923532-35.74149 5.178096-3.157375 10.987667-5.051801 17.049827-5.683276 2.147015-0.25259 3.915146 1.26295 4.167736 3.409966 0.25259 2.02072-1.26295 3.915146-3.409966 4.167736-4.925506 0.50518-9.598421 2.02072-13.892451 4.672915-9.345831 5.683276-13.892452 15.407992-13.387272 28.921559 1.641835 45.845091 26.900839 54.685742 27.911199 55.064628 0.378885 0.126295 10.608781 3.409965 20.838677 10.861371 14.018747 9.977306 21.091268 22.733103 20.712383 36.75185-0.126295 2.904785 0 6.188456 0 9.598421 0.631475 31.700049 1.51554 79.439566-108.361125 84.365072l0.25259 0.25259zM590.808091 556.708436h-65.547114c-20.459793 0-37.25703-16.670942-37.25703-37.25703v-100.530834h7.577701c0 7.072521 24.248643 17.428712 62.389738 17.428713 17.302417 0 33.46818-2.147015 45.592502-6.062161 12.376912-3.915146 16.797237-8.588061 16.797237-11.366552h7.577701v100.530834c0 20.586088-16.670942 37.25703-37.130735 37.25703zM495.581648 430.792304v88.659102c0 16.292057 13.260977 29.679329 29.679329 29.679329h65.547114c16.292057 0 29.679329-13.260977 29.679329-29.679329v-88.659102c-3.53626 2.5259-8.461766 4.799211-14.397632 6.693636-12.882092 4.167736-29.931919 6.441046-47.992107 6.441046s-35.110015-2.27331-47.992106-6.441046c-6.062161-1.894425-10.861371-4.167736-14.523927-6.693636z" fill="#5BBAB3" p-id="9036"></path><path d="M557.971386 443.800691c-18.060187 0-35.110015-2.27331-47.992106-6.441046-14.397632-4.546621-21.975333-10.987667-21.975333-18.565368s7.577701-14.018747 21.975333-18.565367c12.882092-4.167736 29.931919-6.441046 47.992106-6.441046s35.110015 2.27331 47.992107 6.441046c14.397632 4.546621 21.975333 10.987667 21.975333 18.565367s-7.577701 14.018747-21.975333 18.565368c-12.882092 4.167736-29.931919 6.441046-47.992107 6.441046z m0-42.308831c-17.302417 0-33.46818 2.147015-45.592501 6.062161-12.376912 3.915146-16.797237 8.588061-16.797237 11.366551s4.420326 7.451406 16.797237 11.366552c12.124322 3.915146 28.290084 6.062161 45.592501 6.062161s33.46818-2.147015 45.592502-6.062161c12.376912-3.915146 16.797237-8.588061 16.797237-11.366552s-4.420326-7.451406-16.797237-11.366551c-12.124322-3.915146-28.290084-6.062161-45.592502-6.062161zM630.085841 529.428712c-2.147015 0-3.788851-1.641835-3.78885-3.78885s1.641835-3.788851 3.78885-3.788851c19.828318 0 35.867785-16.165762 35.867785-35.867785 0-19.828318-16.165762-35.867785-35.867785-35.867784-2.147015 0-3.788851-1.641835-3.78885-3.788851s1.641835-3.788851 3.78885-3.78885c23.996053 0 43.445486 19.449433 43.445486 43.445485 0.126295 23.869758-19.449433 43.445486-43.445486 43.445486zM186.158855 521.977306l-4.29403-0.50518c-17.807597-2.27331-35.74149-2.27331-53.549087 0l-4.294031 0.50518V269.134682H186.158855v252.842624z m-31.068574-9.851011c7.830291 0 15.660582 0.378885 23.490873 1.26295V276.712383H131.599408v236.676862c7.830291-0.75777 15.660582-1.26295 23.490873-1.26295zM177.318204 980.428219H132.862358c-4.925506 0-8.840651-3.915146-8.840651-8.840651V617.708929l4.294031 0.505181c17.807597 2.27331 35.74149 2.27331 53.549087 0l4.29403-0.505181v353.878639c0 4.925506-3.915146 8.840651-8.840651 8.840651zM131.599408 626.296991v345.290577c0 0.75777 0.50518 1.26295 1.26295 1.26295H177.318204c0.75777 0 1.26295-0.50518 1.26295-1.26295V626.296991c-15.534287 1.641835-31.321164 1.641835-46.981746 0zM837.841145 526.902812V269.134682h62.137148v257.76813l-4.294031-0.50518c-8.840651-1.136655-17.933892-1.76813-26.774543-1.641835-8.840651 0-17.933892 0.50518-26.774544 1.641835l-4.29403 0.50518z m31.194869-9.724716c7.703996 0 15.534287 0.378885 23.364578 1.26295V276.712383H845.418846v241.602368c7.830291-0.884065 15.660582-1.26295 23.490873-1.26295 0 0.126295 0.126295 0.126295 0.126295 0.126295zM891.137642 980.428219H846.681796c-4.925506 0-8.840651-3.915146-8.840651-8.840651V622.634435l4.29403 0.50518c17.807597 2.27331 35.74149 2.27331 53.549087 0l4.294031-0.50518v348.953133c0 4.925506-4.041441 8.840651-8.840651 8.840651zM845.418846 631.222496v340.365072c0 0.75777 0.50518 1.26295 1.26295 1.26295h44.455846c0.75777 0 1.26295-0.50518 1.26295-1.26295V631.222496c-15.660582 1.641835-31.447459 1.641835-46.981746 0z" fill="#5BBAB3" p-id="9037"></path><path d="M928.142082 1024h-832.284164c-4.925506 0-8.840651-3.915146-8.840651-8.840651v-33.46818c0-4.925506 3.915146-8.840651 8.840651-8.840651h832.284164c4.925506 0 8.840651 3.915146 8.840651 8.840651v33.46818c0 4.925506-3.915146 8.840651-8.840651 8.840651z m-832.284164-43.571781c-0.75777 0-1.26295 0.50518-1.26295 1.26295v33.46818c0 0.75777 0.50518 1.26295 1.26295 1.26295h832.284164c0.75777 0 1.26295-0.50518 1.26295-1.26295v-33.46818c0-0.75777-0.50518-1.26295-1.26295-1.26295h-832.284164zM776.209176 598.512087H241.602368l6.819931-6.567341c7.325111-6.946226 10.987667-14.397632 10.987666-22.101628 0-4.546621-1.26295-9.093241-3.662555-13.008387l-3.409966-5.683276h523.998027l-4.925506 6.188456c-4.546621 5.683276-6.819931 11.619142-6.81993 17.555008 0 5.935866 2.27331 11.871732 6.81993 17.555007l4.799211 6.062161z m-516.672916-7.577701h501.770104c-2.904785-5.178096-4.294031-10.608781-4.294031-16.165762s1.51554-10.861371 4.294031-16.165763h-496.339418c1.26295 3.53626 2.02072 7.325111 2.020721 11.113962 0 7.451406-2.5259 14.523927-7.451407 21.217563z" fill="#5BBAB3" p-id="9038"></path><path d="M155.090281 627.559941c-9.219536 0-18.565368-0.631475-27.784904-1.76813-49.381352-6.441046-83.986186-29.426739-83.986186-55.948693 0-26.521954 34.47854-49.507647 83.986186-55.948693 18.439073-2.399605 37.130735-2.399605 55.443513 0 37.888505 4.925506 68.325604 19.828318 79.439566 39.151456 3.03108 5.051801 4.672916 10.861371 4.672915 16.797237 0 9.724716-4.672916 19.196843-13.387271 27.532314-14.650222 14.145042-40.540701 24.374938-70.851505 28.290084-8.966946 1.26295-18.312778 1.894425-27.532314 1.894425z m0-107.855945c-8.966946 0-17.933892 0.50518-26.774543 1.641835-44.834731 5.809571-77.418846 26.143069-77.418846 48.370992 0 22.227923 32.584114 42.561421 77.292551 48.370992 17.807597 2.27331 35.74149 2.27331 53.549087 0 28.795264-3.662556 53.043907-13.260977 66.557474-26.269364 7.325111-6.946226 10.987667-14.397632 10.987666-22.101628 0-4.546621-1.26295-9.093241-3.662555-13.008387-9.977306-17.302417-38.26739-30.815984-73.882585-35.362605-8.714356-1.01036-17.681302-1.641835-26.648249-1.641835zM868.783424 632.485446c-9.219536 0-18.565368-0.631475-27.784904-1.76813-34.22595-4.420326-62.516034-17.049827-75.650715-33.720769-5.556981-6.946226-8.335471-14.397632-8.335472-22.227923 0-7.703996 2.77849-15.155402 8.335472-22.227923 13.260977-16.670942 41.551061-29.300444 75.650715-33.72077 9.093241-1.136655 18.312778-1.76813 27.406019-1.76813h0.378885c9.219536 0 18.439073 0.631475 27.658609 1.76813 49.507647 6.441046 84.112481 29.426739 84.112481 55.948693 0 26.521954-34.604835 49.507647-84.112481 55.948692-9.093241 1.136655-18.312778 1.76813-27.658609 1.76813z m-0.25259-107.729649c-8.840651 0-17.681302 0.631475-26.521954 1.641835-32.205229 4.167736-58.600888 15.660582-70.72521 30.815984-4.420326 5.683276-6.693636 11.492847-6.693635 17.555008 0 6.062161 2.27331 11.871732 6.693635 17.555007 11.998027 15.155402 38.393685 26.648249 70.72521 30.815984 17.807597 2.27331 35.74149 2.27331 53.549087 0 44.961026-5.809571 77.545141-26.143069 77.545141-48.370991 0-22.227923-32.584114-42.561421-77.545141-48.370992-8.840651-1.136655-17.807597-1.76813-26.774543-1.641835h-0.25259zM668.226936 276.712383h-87.396152c-2.147015 0-3.788851-1.641835-3.78885-3.788851s1.641835-3.788851 3.78885-3.78885h87.396152c2.147015 0 3.788851 1.641835 3.788851 3.78885s-1.641835 3.788851-3.788851 3.788851zM872.067094 67.441539c6.819931-0.50518 11.998027-6.441046 11.492847-13.260977-0.126295-1.51554-0.50518-3.03108-1.136655-4.29403C869.162309 20.964973 852.365072 3.788851 834.178589 3.788851c-42.940306 0-77.545141 76.78737-77.545141 194.494326l25.511594 1.01036c0-88.406512 23.238283-160.142082 52.033547-160.142082 9.598421 0 18.565368 7.956586 26.269364 21.975333 2.27331 4.167736 6.819931 6.567341 11.619141 6.314751z" fill="#5BBAB3" p-id="9039"></path><path d="M785.933892 203.208683l-33.089294-1.389245V198.283177c0-57.085348 7.956586-106.4667 22.985693-142.839664C790.480513 19.702023 811.319191 0 834.178589 0c19.323138 0 37.25703 16.670942 51.780957 48.244697 0.884065 1.76813 1.26295 3.662556 1.389245 5.683275 0.50518 6.441046-3.03108 12.376912-8.335471 15.281697l1.389245 1.389246-8.082881 0.50518c-6.188456 0.378885-12.250617-2.77849-15.155402-8.209176-5.051801-9.093241-13.134682-19.954613-22.985693-19.954613-23.238283 0-48.244697 62.894919-48.244697 156.353231v3.915146z m-25.511593-8.588061l17.933892 0.75777c0.378885-41.677356 5.809571-80.828811 15.407993-110.50814 10.356191-31.952639 24.753823-49.507647 40.414405-49.507647 10.735076 0 20.964973 8.209176 29.679329 23.869758 1.51554 2.77849 4.546621 4.420326 7.577701 4.420326h0.50518c4.672916-0.378885 8.335471-4.420326 7.956586-9.219537-0.126295-1.01036-0.378885-2.02072-0.75777-3.03108C866.004933 23.111988 850.091761 7.577701 834.178589 7.577701c-19.575728 0-37.888505 18.060187-51.402072 50.770597-14.145042 34.099655-22.101628 82.470646-22.354218 136.272324z" fill="#5BBAB3" p-id="9040"></path><path d="M335.313271 67.441539c6.819931-0.50518 11.998027-6.441046 11.492846-13.260977-0.126295-1.51554-0.50518-3.03108-1.136655-4.29403C332.408485 20.964973 315.611248 3.788851 297.298471 3.788851c-42.940306 0-77.545141 76.78737-77.545141 194.494326l25.511594 1.01036c0-88.406512 23.364578-160.142082 52.033547-160.142082 9.598421 0 18.565368 7.956586 26.269363 21.975333 2.399605 4.167736 6.946226 6.693636 11.745437 6.314751z" fill="#5BBAB3" p-id="9041"></path><path d="M249.053774 203.208683l-33.089294-1.389245V198.283177c0-57.085348 7.956586-106.4667 22.985693-142.839664C253.72669 19.702023 274.439073 0 297.298471 0c19.323138 0 37.25703 16.670942 51.780957 48.244697 0.884065 1.76813 1.26295 3.662556 1.389245 5.683275 0.25259 4.294031-1.136655 8.461766-3.915146 11.745437-2.5259 2.904785-5.935866 4.799211-9.598421 5.304391l-0.126295 0.126295-1.389245 0.126295c-6.188456 0.378885-12.250617-2.77849-15.155402-8.209176-5.051801-9.093241-13.134682-19.954613-22.985693-19.954613-23.238283 0-48.244697 62.894919-48.244697 156.353231v3.788851z m-25.511593-8.588061l17.933892 0.75777c0.378885-41.677356 5.809571-80.828811 15.407992-110.50814 10.356191-31.952639 24.753823-49.507647 40.414406-49.507647 10.735076 0 20.964973 8.209176 29.679329 23.869758 1.51554 2.652195 4.420326 4.420326 7.451406 4.420326h0.631475c2.27331-0.126295 4.420326-1.136655 5.935866-2.904786 1.51554-1.76813 2.27331-3.915146 2.147015-6.188456-0.126295-1.01036-0.378885-2.02072-0.75777-3.03108C329.25111 23.111988 313.211643 7.577701 297.298471 7.577701c-19.575728 0-37.888505 18.060187-51.402072 50.770597-14.145042 34.099655-21.975333 82.470646-22.354218 136.272324z" fill="#5BBAB3" p-id="9042"></path></svg>