<?xml version="1.0" standalone="no"?><!DOCTYPE svg PUBLIC "-//W3C//DTD SVG 1.1//EN" "http://www.w3.org/Graphics/SVG/1.1/DTD/svg11.dtd"><svg t="1653011436162" class="icon" viewBox="0 0 1024 1024" version="1.1" xmlns="http://www.w3.org/2000/svg" p-id="11414" xmlns:xlink="http://www.w3.org/1999/xlink" width="128" height="128"><defs><style type="text/css">@font-face { font-family: feedback-iconfont; src: url("//at.alicdn.com/t/font_1031158_u69w8yhxdu.woff2?t=1630033759944") format("woff2"), url("//at.alicdn.com/t/font_1031158_u69w8yhxdu.woff?t=1630033759944") format("woff"), url("//at.alicdn.com/t/font_1031158_u69w8yhxdu.ttf?t=1630033759944") format("truetype"); }
</style></defs><path d="M188.631579 940.463158l10.778947 16.168421 239.831579-105.094737 26.947369-24.252631 10.778947-37.726316V237.136842l-5.389474-40.421053-32.336842-29.642105-239.831579-105.094737-10.778947 21.557895z" fill="#10ABFF" opacity=".4" p-id="11415"></path><path d="M803.031579 35.031579H220.968421c-13.473684 0-26.947368 5.389474-35.031579 13.473684-10.778947 8.084211-16.168421 21.557895-16.168421 35.031579v854.231579c0 26.947368 24.252632 48.505263 51.2 48.505263h582.063158c29.642105 0 51.2-21.557895 51.2-48.505263V83.536842c0-26.947368-24.252632-48.505263-51.2-48.505263zM431.157895 183.242105c24.252632 13.473684 26.947368 26.947368 26.947368 45.810527v560.505263c0 18.863158-5.389474 32.336842-26.947368 45.810526l-223.663158 97.010526V86.231579L431.157895 183.242105z m385.347368 757.221053c0 5.389474-5.389474 10.778947-13.473684 10.778947H256l191.326316-83.536842c32.336842-18.863158 48.505263-43.115789 48.505263-78.147368V512v-2.694737V229.052632c0-37.726316-13.473684-59.284211-48.505263-78.147369l-175.157895-75.452631h530.863158c8.084211 0 13.473684 5.389474 13.473684 10.778947v854.231579z" fill="#10ABFF" p-id="11416"></path><path d="M401.515789 579.368421c10.778947 0 18.863158-8.084211 18.863158-18.863158v-99.705263c0-10.778947-8.084211-18.863158-18.863158-18.863158s-18.863158 8.084211-18.863157 18.863158v99.705263c0 10.778947 8.084211 18.863158 18.863157 18.863158z" fill="#10ABFF" p-id="11417"></path></svg>