<?xml version="1.0" standalone="no"?><!DOCTYPE svg PUBLIC "-//W3C//DTD SVG 1.1//EN" "http://www.w3.org/Graphics/SVG/1.1/DTD/svg11.dtd"><svg t="1653011882884" class="icon" viewBox="0 0 1024 1024" version="1.1" xmlns="http://www.w3.org/2000/svg" p-id="24526" xmlns:xlink="http://www.w3.org/1999/xlink" width="128" height="128"><defs><style type="text/css">@font-face { font-family: feedback-iconfont; src: url("//at.alicdn.com/t/font_1031158_u69w8yhxdu.woff2?t=1630033759944") format("woff2"), url("//at.alicdn.com/t/font_1031158_u69w8yhxdu.woff?t=1630033759944") format("woff"), url("//at.alicdn.com/t/font_1031158_u69w8yhxdu.ttf?t=1630033759944") format("truetype"); }
</style></defs><path d="M129.5 462h38v324c0 10.5-8.5 19-19 19s-19-8.5-19-19V462z" fill="#7A7672" p-id="24527"></path><path d="M148.5 805c-10.5 0-19-8.5-19-19V470.3c0-4.6 3.7-8.3 8.3-8.3h21.3c4.7 0 8.4 3.7 8.4 8.3V786c0 10.5-8.5 19-19 19z m-9-333v314c0 5 4 9 9 9s9-4 9-9V472h-18z" fill="#707070" p-id="24528"></path><path d="M851.5 462h38v324c0 10.5-8.5 19-19 19s-19-8.5-19-19V462z" fill="#7A7672" p-id="24529"></path><path d="M870.5 805c-10.5 0-19-8.5-19-19V470.3c0-4.6 3.7-8.3 8.3-8.3h21.3c4.7 0 8.4 3.7 8.4 8.3V786c0 10.5-8.5 19-19 19z m-9-333v314c0 5 4 9 9 9s9-4 9-9V472h-18z" fill="#707070" p-id="24530"></path><path d="M131.5 394h761c10.5 0 19 8.5 19 19v44c0 10.5-8.5 19-19 19h-761c-10.5 0-19-8.5-19-19v-44c0-10.5 8.5-19 19-19z" fill="#D19B61" p-id="24531"></path><path d="M892.5 476h-761c-10.5 0-19-8.5-19-19v-44c0-10.5 8.5-19 19-19h761c10.5 0 19 8.5 19 19v44c0 10.5-8.5 19-19 19z m-761-72c-5 0-9 4-9 9v44c0 5 4 9 9 9h761c5 0 9-4 9-9v-44c0-5-4-9-9-9h-761z" fill="#707070" p-id="24532"></path><path d="M247.6 804.333c-5.495-0.192-9.83-4.945-9.63-10.64l6.19-179.523 19.98 0.7-6.19 179.524c-0.098 2.797-1.188 5.36-3.252 7.188a9.592 9.592 0 0 1-7.098 2.752z" fill="#7A7672" p-id="24533"></path><path d="M248.98 619.34l-6.011 174.429c-0.102 2.897 2.112 5.375 4.81 5.47 1.698 0.06 2.928-0.798 3.548-1.376 1.034-0.964 1.583-2.346 1.632-3.744l6.011-174.429-9.99-0.35M239.34 609l29.97 1.05-6.365 184.519c-0.294 8.391-7.228 15.05-15.52 14.76-8.292-0.291-14.744-7.419-14.45-15.81L239.34 609z" fill="#707070" p-id="24534"></path><path d="M582.739 804.333c-5.495-0.192-9.83-4.945-9.63-10.64l6.19-179.523 19.98 0.7-6.19 179.524c-0.098 2.797-1.188 5.36-3.252 7.188a9.592 9.592 0 0 1-7.098 2.752z" fill="#7A7672" p-id="24535"></path><path d="M584.119 619.34l-6.011 174.429c-0.102 2.897 2.112 5.375 4.81 5.47 1.698 0.06 2.928-0.798 3.548-1.376 1.034-0.964 1.583-2.346 1.632-3.744l6.011-174.429-9.99-0.35m-9.64-10.34l29.97 1.05-6.365 184.519c-0.294 8.391-7.228 15.05-15.52 14.76-8.292-0.291-14.744-7.419-14.45-15.81L574.48 609z" fill="#707070" p-id="24536"></path><path d="M438.3 804.307a9.592 9.592 0 0 1-7.098-2.752 10.278 10.278 0 0 1-3.253-7.188l-6.09-179.527 19.98-0.7 6.19 179.524c0.2 5.694-4.135 10.447-9.73 10.643z" fill="#7A7672" p-id="24537"></path><path d="M437.02 619.31l-9.99 0.35 6.014 174.529c0.053 1.498 0.598 2.78 1.632 3.743 0.52 0.582 1.75 1.44 3.549 1.376 2.797-0.098 4.91-2.572 4.81-5.47l-6.016-174.528m9.64-10.34l6.365 184.519c0.298 8.491-6.158 15.519-14.45 15.81-8.291 0.29-15.222-6.269-15.52-14.76l-6.365-184.52 29.97-1.05z" fill="#707070" p-id="24538"></path><path d="M773.439 804.307a9.592 9.592 0 0 1-7.098-2.752 10.278 10.278 0 0 1-3.253-7.188l-6.09-179.527 19.98-0.7 6.19 179.524c0.2 5.694-4.135 10.447-9.73 10.643z" fill="#7A7672" p-id="24539"></path><path d="M772.159 619.31l-9.99 0.35 6.014 174.529c0.053 1.498 0.598 2.78 1.632 3.743 0.52 0.582 1.75 1.44 3.549 1.376 2.797-0.098 4.91-2.572 4.81-5.47l-6.016-174.528m9.64-10.34l6.365 184.519c0.298 8.491-6.158 15.519-14.45 15.81-8.291 0.29-15.222-6.269-15.52-14.76l-6.365-184.52 29.97-1.05z" fill="#707070" p-id="24540"></path><path d="M226.5 569h231c10.5 0 19 8.5 19 19v10c0 10.5-8.5 19-19 19h-231c-10.5 0-19-8.5-19-19v-10c0-10.5 8.5-19 19-19z" fill="#473B33" p-id="24541"></path><path d="M457.5 617h-231c-10.5 0-19-8.5-19-19v-10c0-10.5 8.5-19 19-19h231c10.5 0 19 8.5 19 19v10c0 10.5-8.5 19-19 19z m-231-38c-5 0-9 4-9 9v10c0 5 4 9 9 9h231c5 0 9-4 9-9v-10c0-5-4-9-9-9h-231z" fill="#707070" p-id="24542"></path><path d="M561.5 569h231c10.5 0 19 8.5 19 19v10c0 10.5-8.5 19-19 19h-231c-10.5 0-19-8.5-19-19v-10c0-10.5 8.5-19 19-19z" fill="#473B33" p-id="24543"></path><path d="M792.5 617h-231c-10.5 0-19-8.5-19-19v-10c0-10.5 8.5-19 19-19h231c10.5 0 19 8.5 19 19v10c0 10.5-8.5 19-19 19z m-231-38c-5 0-9 4-9 9v10c0 5 4 9 9 9h231c5 0 9-4 9-9v-10c0-5-4-9-9-9h-231z" fill="#707070" p-id="24544"></path><path d="M442.7 574H241.3l-4.8-157.6c0-7.1 0.7-14.3 2.1-21.2 1.4-6.8 3.5-13.4 6.1-19.8 2.6-6.3 5.9-12.3 9.7-17.9 3.8-5.6 8.1-10.8 12.9-15.6s10-9.1 15.6-12.9c5.6-3.8 11.7-7.1 17.9-9.7 6.4-2.7 13-4.8 19.8-6.1 7-1.4 14.1-2.1 21.3-2.1s14.3 0.7 21.3 2.1c6.8 1.4 13.4 3.5 19.8 6.1 6.3 2.6 12.3 5.9 17.9 9.7 5.6 3.8 10.8 8.1 15.6 12.9 4.8 4.8 9.1 10 12.9 15.6 3.8 5.6 7.1 11.7 9.7 17.9 2.7 6.4 4.8 13 6.1 19.8 1.4 6.9 2.1 14.1 2.1 21.2L442.7 574z" fill="#473B33" p-id="24545"></path><path d="M342 316c-55.4 0-100.5 45.1-100.5 100.2l4.7 152.8h191.6l4.7-152.5c0-55.4-45.1-100.5-100.5-100.5m0-10c61 0 110.5 49.5 110.5 110.5l-5 162.5h-211l-5-162.5c0-61 49.5-110.5 110.5-110.5z" fill="#707070" p-id="24546"></path><path d="M777.7 574H576.3l-4.8-157.6c0-7.1 0.7-14.3 2.1-21.2 1.4-6.8 3.5-13.4 6.1-19.8 2.6-6.3 5.9-12.3 9.7-17.9 3.8-5.6 8.1-10.8 12.9-15.6s10-9.1 15.6-12.9c5.6-3.8 11.7-7.1 17.9-9.7 6.4-2.7 13-4.8 19.8-6.1 7-1.4 14.1-2.1 21.3-2.1s14.3 0.7 21.3 2.1c6.8 1.4 13.4 3.5 19.8 6.1 6.3 2.6 12.3 5.9 17.9 9.7 5.6 3.8 10.8 8.1 15.6 12.9 4.8 4.8 9.1 10 12.9 15.6 3.8 5.6 7.1 11.7 9.7 17.9 2.7 6.4 4.8 13 6.1 19.8 1.4 6.9 2.1 14.1 2.1 21.2L777.7 574z" fill="#473B33" p-id="24547"></path><path d="M677 316c-55.4 0-100.5 45.1-100.5 100.2l4.7 152.8h191.6l4.7-152.5c0-55.4-45.1-100.5-100.5-100.5m0-10c61 0 110.5 49.5 110.5 110.5l-5 162.5h-211l-5-162.5c0-61 49.5-110.5 110.5-110.5z" fill="#707070" p-id="24548"></path></svg>