<?xml version="1.0" standalone="no"?><!DOCTYPE svg PUBLIC "-//W3C//DTD SVG 1.1//EN" "http://www.w3.org/Graphics/SVG/1.1/DTD/svg11.dtd"><svg t="1651198077361" class="icon" viewBox="0 0 1024 1024" version="1.1" xmlns="http://www.w3.org/2000/svg" p-id="19280" xmlns:xlink="http://www.w3.org/1999/xlink" width="128" height="128"><defs><style type="text/css">@font-face { font-family: feedback-iconfont; src: url("//at.alicdn.com/t/font_1031158_u69w8yhxdu.woff2?t=1630033759944") format("woff2"), url("//at.alicdn.com/t/font_1031158_u69w8yhxdu.woff?t=1630033759944") format("woff"), url("//at.alicdn.com/t/font_1031158_u69w8yhxdu.ttf?t=1630033759944") format("truetype"); }
</style></defs><path d="M490.368 695.594667V42.666667H231.936a62.72 62.72 0 0 0-62.72 62.72v590.208h321.152zM380.757333 374.528h23.253334a21.632 21.632 0 0 1 0 43.264h-23.253334a21.632 21.632 0 1 1 0-43.264z m-211.584 364.373333V866.133333c0 34.645333 28.074667 62.72 62.72 62.72h9.557334v30.848a21.632 21.632 0 0 0 43.264 0v-30.848h454.570666v30.848a21.632 21.632 0 0 0 43.264 0v-30.848h9.514667a62.72 62.72 0 0 0 62.762667-62.72v-127.232H169.173333z m376.362667 116.352h-67.072a21.632 21.632 0 1 1 0-43.306666h67.072a21.632 21.632 0 1 1 0 43.306666z m-11.904-159.658666h321.194667V105.386667A62.72 62.72 0 0 0 792.106667 42.666667h-258.474667v652.928z m86.357333-321.066667h23.253334a21.632 21.632 0 1 1 0 43.264h-23.253334a21.632 21.632 0 0 1 0-43.264z" p-id="19281" fill="#707070"></path></svg>