<?xml version="1.0" standalone="no"?><!DOCTYPE svg PUBLIC "-//W3C//DTD SVG 1.1//EN" "http://www.w3.org/Graphics/SVG/1.1/DTD/svg11.dtd"><svg t="1653011538482" class="icon" viewBox="0 0 1024 1024" version="1.1" xmlns="http://www.w3.org/2000/svg" p-id="13533" xmlns:xlink="http://www.w3.org/1999/xlink" width="128" height="128"><defs><style type="text/css">@font-face { font-family: feedback-iconfont; src: url("//at.alicdn.com/t/font_1031158_u69w8yhxdu.woff2?t=1630033759944") format("woff2"), url("//at.alicdn.com/t/font_1031158_u69w8yhxdu.woff?t=1630033759944") format("woff"), url("//at.alicdn.com/t/font_1031158_u69w8yhxdu.ttf?t=1630033759944") format("truetype"); }
</style></defs><path d="M827.2 664.7H197.3c-6.6 0-12-5.4-12-12v-90.2c0-55 45-100 100-100h453.8c55 0 100 45 100 100v90.2c0.1 6.6-5.3 12-11.9 12z" fill="#D9DFFF" p-id="13534"></path><path d="M827.2 687.7H197.3c-19.3 0-35-15.7-35-35v-90.2c0-67.8 55.2-123 123-123h453.8c67.8 0 123 55.2 123 123v90.2c0.1 19.3-15.6 35-34.9 35z m-618.9-46h607.8v-79.2c0-42.5-34.5-77-77-77H285.3c-42.5 0-77 34.5-77 77v79.2z" fill="#728BFF" p-id="13535"></path><path d="M185.3 957.7c-12.7 0-23-10.3-23-23V656.9c0-12.7 10.3-23 23-23s23 10.3 23 23v277.8c0 12.7-10.3 23-23 23zM839.2 957.7c-12.7 0-23-10.3-23-23V656.9c0-12.7 10.3-23 23-23s23 10.3 23 23v277.8c0 12.7-10.3 23-23 23zM301.2 854.6c-12.7 0-23-10.3-23-23v-163c0-12.7 10.3-23 23-23s23 10.3 23 23v163c0 12.7-10.3 23-23 23zM747.9 854.6c-12.7 0-23-10.3-23-23v-163c0-12.7 10.3-23 23-23s23 10.3 23 23v163c0 12.7-10.3 23-23 23zM787.6 488.5c-12.7 0-23-10.3-23-23V116.4H259.9v349.1c0 12.7-10.3 23-23 23s-23-10.3-23-23V109.7c0-22 15.3-39.3 34.9-39.3h526.9c19.6 0 34.9 17.3 34.9 39.3v355.8c0 12.7-10.3 23-23 23z" fill="#728BFF" p-id="13536"></path><path d="M517.2 541.4c-7.8 0-14.4-6.1-15-14-0.5-8.3 5.7-15.4 14-15.9l19.6-1.3c8.3-0.5 15.4 5.7 15.9 14s-5.7 15.4-14 15.9l-19.6 1.3h-0.9zM758.5 588.5c-6.8 0-12.9-4.6-14.6-11.5-3.7-15.2-11.9-26-24.5-32-9.7-4.6-18.8-4.9-19.6-4.9H583.7c-8.3 0-15-6.7-15-15s6.7-15 15-15h115.8c2.1 0 15.8 0.2 31.3 7.1 15.2 6.8 34.8 21.5 42.3 52.8 1.9 8.1-3 16.2-11.1 18.1-1.2 0.3-2.4 0.4-3.5 0.4z" fill="#FFFFFF" p-id="13537"></path></svg>