<?xml version="1.0" standalone="no"?><!DOCTYPE svg PUBLIC "-//W3C//DTD SVG 1.1//EN" "http://www.w3.org/Graphics/SVG/1.1/DTD/svg11.dtd"><svg t="1653012149475" class="icon" viewBox="0 0 1061 1024" version="1.1" xmlns="http://www.w3.org/2000/svg" p-id="27536" xmlns:xlink="http://www.w3.org/1999/xlink" width="132.625" height="128"><defs><style type="text/css">@font-face { font-family: feedback-iconfont; src: url("//at.alicdn.com/t/font_1031158_u69w8yhxdu.woff2?t=1630033759944") format("woff2"), url("//at.alicdn.com/t/font_1031158_u69w8yhxdu.woff?t=1630033759944") format("woff"), url("//at.alicdn.com/t/font_1031158_u69w8yhxdu.ttf?t=1630033759944") format("truetype"); }
</style></defs><path d="M229.595128 569.415638h33.711934V981.860082h-33.711934zM424.361613 569.415638h33.711934V981.860082h-33.711934zM622.945975 569.415638h33.711934V981.860082h-33.711934zM813.894584 569.415638h33.711935V981.860082h-33.711935z" fill="#6E6E96" p-id="27537"></path><path d="M1036.641975 126.419753c0-55.763753-45.376263-101.135802-101.135802-101.135802H126.419753C70.651786 25.283951 25.283951 70.656 25.283951 126.419753v771.160494c0 55.759539 45.367835 101.135802 101.135802 101.135802h809.08642c55.759539 0 101.135802-45.376263 101.135802-101.135802V126.419753z m-33.711934 771.160494c0 37.175835-30.248033 67.423868-67.423868 67.423868H126.419753c-37.175835 0-67.423868-30.248033-67.423868-67.423868V126.419753c0-37.175835 30.248033-67.423868 67.423868-67.423868h809.08642c37.175835 0 67.423868 30.248033 67.423868 67.423868v771.160494z" fill="#6E6E96" p-id="27538"></path><path d="M935.506173 42.139918H126.419753c-46.353909 0-84.279835 37.925926-84.279835 84.279835v434.041152h977.64609V126.419753c0-46.353909-37.925926-84.279835-84.279835-84.279835z" fill="#B0E4FF" p-id="27539"></path><path d="M935.506173 25.283951H126.419753C70.651786 25.283951 25.283951 70.656 25.283951 126.419753v450.897119h1011.358024V126.419753c0-55.763753-45.376263-101.135802-101.135802-101.135802z m67.423868 101.135802v434.041152l16.855967-16.855967H42.139918l16.855967 16.855967V126.419753c0-37.175835 30.248033-67.423868 67.423868-67.423868h809.08642c37.175835 0 67.423868 30.248033 67.423868 67.423868z" fill="#6E6E96" p-id="27540"></path><path d="M182.588049 252.118914l67.423869-67.423869a16.855967 16.855967 0 0 0-23.838552-23.838551l-67.423868 67.423868a16.855967 16.855967 0 0 0 23.838551 23.838552zM195.230025 374.324675l153.810699-153.8107a16.855967 16.855967 0 0 0-23.838551-23.838551l-153.8107 153.810699a16.855967 16.855967 0 0 0 23.838552 23.838552zM656.657909 245.797926l67.423869-67.423868a16.855967 16.855967 0 0 0-23.834338-23.838552l-67.423868 67.423868a16.855967 16.855967 0 0 0 23.834337 23.838552zM669.299885 368.003687l153.810699-153.810699a16.855967 16.855967 0 0 0-23.834337-23.838552l-153.8107 153.8107a16.855967 16.855967 0 0 0 23.834338 23.838551z" fill="#FFFFFF" opacity=".57" p-id="27541"></path><path d="M512 42.139918h33.711934v522.534979h-33.711934z" fill="#6E6E96" p-id="27542"></path><path d="M96.921811 181.201646c0-46.353909 37.925926-84.279835 84.279835-84.279835h809.08642c8.878881 0 17.45014 1.415901 25.503078 3.994864C1004.914831 66.930831 972.981202 42.139918 935.506173 42.139918H126.419753c-46.353909 0-84.279835 37.925926-84.279835 84.279835v434.041152h54.781893V181.201646z" fill="#6E6E96" opacity=".15" p-id="27543"></path><path d="M545.711934 96.921811h43.543177v446.683127H545.711934zM58.995885 577.316872h943.934156v37.925926H58.995885z" fill="#6E6E96" opacity=".15" p-id="27544"></path><path d="M785.909465 42.139918h238.638354v938.822584H785.909465z" fill="#FFDBDB" p-id="27545"></path><path d="M1024.547819 964.106535H785.909465l16.855967 16.855967V42.139918l-16.855967 16.855967h238.638354l-16.855967-16.855967v938.822584l16.855967-16.855967zM1024.547819 25.283951H769.053498v972.534518h272.350288V25.283951h-16.855967z" fill="#6E6E96" p-id="27546"></path><path d="M850.522601 42.139918h33.711934v938.822584h-33.711934zM930.588444 42.139918h33.711935v938.822584h-33.711935z" fill="#6E6E96" p-id="27547"></path><path d="M38.629663 42.139918h238.638353v938.822584H38.629663z" fill="#FFDBDB" p-id="27548"></path><path d="M277.268016 964.106535H38.629663l16.855967 16.855967V42.139918l-16.855967 16.855967h238.638353l-16.855967-16.855967v938.822584l16.855967-16.855967zM277.268016 25.283951H21.773695v972.534518h272.350289V25.283951h-16.855968z" fill="#6E6E96" p-id="27549"></path><path d="M103.242798 42.139918h33.711935v938.822584h-33.711935z" fill="#6E6E96" p-id="27550"></path><path d="M183.308642 42.139918h33.711934v938.822584h-33.711934z" fill="#6E6E96" p-id="27551"></path><path d="M24.580214 859.654321h1016.819358v138.164148H24.580214z" fill="#6E6E96" opacity=".08" p-id="27552"></path></svg>