<?xml version="1.0" standalone="no"?><!DOCTYPE svg PUBLIC "-//W3C//DTD SVG 1.1//EN" "http://www.w3.org/Graphics/SVG/1.1/DTD/svg11.dtd"><svg t="1653011252671" class="icon" viewBox="0 0 1024 1024" version="1.1" xmlns="http://www.w3.org/2000/svg" p-id="7808" xmlns:xlink="http://www.w3.org/1999/xlink" width="128" height="128"><defs><style type="text/css">@font-face { font-family: feedback-iconfont; src: url("//at.alicdn.com/t/font_1031158_u69w8yhxdu.woff2?t=1630033759944") format("woff2"), url("//at.alicdn.com/t/font_1031158_u69w8yhxdu.woff?t=1630033759944") format("woff"), url("//at.alicdn.com/t/font_1031158_u69w8yhxdu.ttf?t=1630033759944") format("truetype"); }
</style></defs><path d="M98.6 123.5H935V475H98.6z" fill="#D9DFFF" p-id="7809"></path><path d="M938.3 864.5H85.7c-12.7 0-23-10.3-23-23v-718c0-12.7 10.3-23 23-23h852.5c12.7 0 23 10.3 23 23v718c0.1 12.7-10.2 23-22.9 23z m-829.6-46h806.5v-672H108.7v672z" fill="#728BFF" p-id="7810"></path><path d="M934.9 505.5H98.6c-12.7 0-23-10.3-23-23s10.3-23 23-23H935c12.7 0 23 10.3 23 23s-10.4 23-23.1 23z" fill="#728BFF" p-id="7811"></path><path d="M365.2 849.5c-12.7 0-23-10.3-23-23v-703c0-12.7 10.3-23 23-23s23 10.3 23 23v703c0 12.7-10.3 23-23 23zM658.8 849.5c-12.7 0-23-10.3-23-23v-703c0-12.7 10.3-23 23-23s23 10.3 23 23v703c0 12.7-10.3 23-23 23zM86.2 927.5c-12.7 0-23-10.3-23-23v-63c0-12.7 10.3-23 23-23s23 10.3 23 23v63c0 12.7-10.3 23-23 23zM937.7 927.5c-12.7 0-23-10.3-23-23v-63c0-12.7 10.3-23 23-23s23 10.3 23 23v63c0 12.7-10.3 23-23 23zM152.7 699.5c-12.7 0-23-10.3-23-23v-55c0-12.7 10.3-23 23-23s23 10.3 23 23v55c0 12.7-10.3 23-23 23zM430.6 699.5c-12.7 0-23-10.3-23-23v-55c0-12.7 10.3-23 23-23s23 10.3 23 23v55c0 12.7-10.3 23-23 23zM725.9 699.5c-12.7 0-23-10.3-23-23v-55c0-12.7 10.3-23 23-23s23 10.3 23 23v55c0 12.7-10.3 23-23 23z" fill="#728BFF" p-id="7812"></path><path d="M721.9 223.9c-8.2 0-14.9-6.6-15-14.9-0.1-8.3 6.6-15.1 14.9-15.1l20-0.2h0.1c8.2 0 14.9 6.6 15 14.9 0.1 8.3-6.6 15.1-14.9 15.1l-20 0.2h-0.1zM876.8 402.6c-8.3 0-15-6.7-15-15V259c-1-14.8-6.1-24.6-15.7-30-7.4-4.1-15-4.3-15.9-4.3h-37.4c-8.3 0-15-6.7-15-15s6.7-15 15-15h36.9c2.6 0 15.7 0.1 29.5 7.3s30.7 22.7 32.7 55.6v130c-0.1 8.3-6.8 15-15.1 15z" fill="#FFFFFF" p-id="7813"></path></svg>