<?xml version="1.0" standalone="no"?><!DOCTYPE svg PUBLIC "-//W3C//DTD SVG 1.1//EN" "http://www.w3.org/Graphics/SVG/1.1/DTD/svg11.dtd"><svg t="1653012057729" class="icon" viewBox="0 0 1024 1024" version="1.1" xmlns="http://www.w3.org/2000/svg" p-id="26583" xmlns:xlink="http://www.w3.org/1999/xlink" width="128" height="128"><defs><style type="text/css">@font-face { font-family: feedback-iconfont; src: url("//at.alicdn.com/t/font_1031158_u69w8yhxdu.woff2?t=1630033759944") format("woff2"), url("//at.alicdn.com/t/font_1031158_u69w8yhxdu.woff?t=1630033759944") format("woff"), url("//at.alicdn.com/t/font_1031158_u69w8yhxdu.ttf?t=1630033759944") format("truetype"); }
</style></defs><path d="M310.6 571.2h28.8v28.8h-28.8v-28.8z m-57.5 0h28.8v28.8h-28.8v-28.8z m-57.5 0h28.8v28.8h-28.8v-28.8z m661.6 302c2.7 0 62.3 0.7 70.9 57.5H182.2c8.3-55.4 64.1-57.5 70.9-57.5h86.3c47.4 0 65.7-32.7 70.5-58 2.9 0.1 5.7 0.4 8.6 0.4 157.1 0 286.4-120.5 300.7-273.9 29-2.9 51.8-27.2 51.8-56.9V197.2h158.2v359.6c0 127.3-110.4 129.4-115.1 129.5h-14.4v115.1c0 56.8 37.6 71.8 57.5 71.8zM146.8 542.4h543.5c-14.4 137.2-130.8 244.5-271.8 244.5S161.2 679.6 146.8 542.4z m-23.2-28.8c-15.9 0-28.8-12.9-28.8-28.8s12.9-28.8 28.8-28.8h408.7c5.4 13.3 8.5 27.9 8.5 43.2h28.8c0-15.3 3.1-29.8 8.5-43.2h135.4c15.9 0 28.8 12.9 28.8 28.8s-12.9 28.8-28.8 28.8H123.6z m364.8-143.8c29.1-14.1 52.7-37.7 66.8-66.8 14.1 29.1 37.7 52.7 66.8 66.8-29.1 14.1-52.7 37.7-66.8 66.8-14.1-29.1-37.8-52.7-66.8-66.8zM770.9 132.4c0-19.8 16.1-36 36-36h86.3c19.8 0 36 16.1 36 36v36H770.9v-36z m187 424.4V125.2h-0.7c-3.6-32.3-30.8-57.5-64-57.5h-86.3c-33.2 0-60.4 25.3-64 57.5h-0.7v310.1c-8.5-4.9-18.2-8-28.8-8H594.9c21.1-26.3 53.4-43.2 89.7-43.2v-28.8c-63.5 0-115.1-51.6-115.1-115.1h-28.8c0 63.5-51.6 115.1-115.1 115.1v28.8c36.3 0 68.6 16.9 89.7 43.2H123.6c-31.7 0-57.5 25.8-57.5 57.5 0 29.7 22.8 54 51.8 56.9C131 682.8 241.3 795.7 381 813.1c-3.2 13.1-12.7 31.4-41.6 31.4h-86.3c-34.8 0-100.7 21-100.7 100.7v14.4h805.5v-14.4c0-79.6-65.9-100.7-100.7-100.7-1.2 0-28.8-0.5-28.8-43.2V713.7c36.5-5.1 129.5-30.5 129.5-156.9z m-676-419c10.5 18.9 26.1 34.5 45 45a115.87 115.87 0 0 0-45 45 115.87 115.87 0 0 0-45-45c18.8-10.5 34.5-26.2 45-45zM267.5 283.5h28.8c0-47.6 38.7-86.3 86.3-86.3v-28.8c-47.6 0-86.3-38.7-86.3-86.3h-28.8c0 47.6-38.7 86.3-86.3 86.3v28.8c47.6 0 86.3 38.7 86.3 86.3z" fill="#3D8099" p-id="26584"></path></svg>