<?xml version="1.0" standalone="no"?><!DOCTYPE svg PUBLIC "-//W3C//DTD SVG 1.1//EN" "http://www.w3.org/Graphics/SVG/1.1/DTD/svg11.dtd"><svg t="1651045516996" class="icon" viewBox="0 0 1030 1024" version="1.1" xmlns="http://www.w3.org/2000/svg" p-id="18333" xmlns:xlink="http://www.w3.org/1999/xlink" width="128.75" height="128"><defs><style type="text/css">@font-face { font-family: feedback-iconfont; src: url("//at.alicdn.com/t/font_1031158_u69w8yhxdu.woff2?t=1630033759944") format("woff2"), url("//at.alicdn.com/t/font_1031158_u69w8yhxdu.woff?t=1630033759944") format("woff"), url("//at.alicdn.com/t/font_1031158_u69w8yhxdu.ttf?t=1630033759944") format("truetype"); }
</style></defs><path d="M524.8 262.4c44.8 0 83.2 12.8 115.2 38.4 32 25.6 44.8 57.6 44.8 102.4 0 38.4-6.4 64-25.6 89.6-6.4 6.4-25.6 25.6-64 57.6-12.8 12.8-25.6 25.6-32 38.4-6.4 12.8-12.8 32-12.8 44.8v12.8H473.6v-12.8c0-25.6 6.4-51.2 12.8-70.4 6.4-19.2 38.4-51.2 83.2-89.6l12.8-12.8c12.8-12.8 19.2-32 19.2-51.2 0-25.6-6.4-44.8-19.2-57.6-12.8-12.8-38.4-19.2-64-19.2-32-6.4-57.6 6.4-70.4 25.6-12.8 19.2-19.2 44.8-19.2 76.8H352c0-51.2 12.8-96 44.8-121.6 32-38.4 76.8-51.2 128-51.2zM512 684.8c12.8 0 25.6 6.4 38.4 12.8 12.8 6.4 12.8 19.2 12.8 38.4s0 32-12.8 38.4c-12.8 6.4-25.6 12.8-38.4 12.8s-25.6-6.4-38.4-12.8c-12.8-12.8-12.8-25.6-12.8-38.4 0-12.8 6.4-25.6 12.8-38.4 12.8-6.4 25.6-12.8 38.4-12.8z" p-id="18334"></path><path d="M518.4 1024c-281.6 0-512-230.4-512-512s230.4-512 512-512c108.8 0 211.2 32 300.8 96 12.8 12.8 19.2 32 6.4 44.8s-32 19.2-44.8 6.4C704 89.6 614.4 64 518.4 64c-249.6 0-448 198.4-448 448s198.4 448 448 448 448-198.4 448-448c0-76.8-19.2-153.6-57.6-224-6.4-12.8-6.4-32 12.8-44.8 12.8-6.4 32-6.4 44.8 12.8 38.4 76.8 64 166.4 64 256 0 281.6-230.4 512-512 512z" p-id="18335"></path></svg>