<?xml version="1.0" standalone="no"?><!DOCTYPE svg PUBLIC "-//W3C//DTD SVG 1.1//EN" "http://www.w3.org/Graphics/SVG/1.1/DTD/svg11.dtd"><svg t="1651042431475" class="icon" viewBox="0 0 1024 1024" version="1.1" xmlns="http://www.w3.org/2000/svg" p-id="3496" xmlns:xlink="http://www.w3.org/1999/xlink" width="16" height="16"><defs><style type="text/css">@font-face { font-family: feedback-iconfont; src: url("//at.alicdn.com/t/font_1031158_u69w8yhxdu.woff2?t=1630033759944") format("woff2"), url("//at.alicdn.com/t/font_1031158_u69w8yhxdu.woff?t=1630033759944") format("woff"), url("//at.alicdn.com/t/font_1031158_u69w8yhxdu.ttf?t=1630033759944") format("truetype"); }
</style></defs><path d="M1013.3 223.2l-148.7-148.5c-6.8-6.8-16-10.8-26.2-10.8-7.4 0-32.9 0-70.3 0L256 63.9c-83.7 0-145 0-154.3 0l-1 0c-20.4 0-36.7 16.3-36.7 36.7l0 885.6 0 0.8c0 20.4 16.3 36.9 36.7 36.9l117.9 0 0.8 0 648.3 0 1 0 0.8 0L986 1023.9l1.1 0c20.7 0 36.9-16.5 36.9-36.9l0-736.6 0-0.5C1024 240.2 1020.9 231 1013.3 223.2zM704 128l0 256L320 384l0-256L704 128zM320 960l0-320 448 0 0 320L320 960zM960 960l-90.6 0-0.8 0-1 0L832 960 832 623.2c0-26.8-21.1-47.3-47.2-47.3L303.2 575.9c-25.9 0-47.2 20.4-47.2 47.3l0 336.7-36.7 0-0.8 0L128 959.9l0-832 128 0L256 400.7c0 26.8 21.4 47.3 47.2 47.3l417.5 0c26.2 0 47.2-20.4 47.2-47.3l0-272.7 59.3 0L960 260.4 960 960z" p-id="3497" fill="#000000"></path><path d="M672 704 416 704c-17.7 0-32 14.3-32 32s14.3 32 32 32l256 0c17.7 0 32-14.3 32-32S689.7 704 672 704z" p-id="3498" fill="#000000"></path><path d="M672 832 416 832c-17.7 0-32 14.3-32 32s14.3 32 32 32l256 0c17.7 0 32-14.3 32-32S689.7 832 672 832z" p-id="3499" fill="#000000"></path></svg>