<?xml version="1.0" standalone="no"?><!DOCTYPE svg PUBLIC "-//W3C//DTD SVG 1.1//EN" "http://www.w3.org/Graphics/SVG/1.1/DTD/svg11.dtd"><svg t="1651817436809" class="icon" viewBox="0 0 1066 1024" version="1.1" xmlns="http://www.w3.org/2000/svg" p-id="6729" xmlns:xlink="http://www.w3.org/1999/xlink" width="49.96875" height="48"><defs><style type="text/css">@font-face { font-family: feedback-iconfont; src: url("//at.alicdn.com/t/font_1031158_u69w8yhxdu.woff2?t=1630033759944") format("woff2"), url("//at.alicdn.com/t/font_1031158_u69w8yhxdu.woff?t=1630033759944") format("woff"), url("//at.alicdn.com/t/font_1031158_u69w8yhxdu.ttf?t=1630033759944") format("truetype"); }
</style></defs><path d="M895.701333 383.061333h-231.68V148.608A20.522667 20.522667 0 0 0 643.413333 128H168.96a20.522667 20.522667 0 0 0-20.608 20.608v726.784c0 11.434667 9.173333 20.608 20.565333 20.608h726.869334a20.522667 20.522667 0 0 0 20.565333-20.608V403.669333a20.650667 20.650667 0 0 0-20.650667-20.608z m-440.576 150.741334H186.624v-45.098667h268.501333a22.528 22.528 0 0 1 0 45.098667z m211.498667 322.346666h-45.013333v-214.186666a22.528 22.528 0 1 1 45.013333 0v214.186666z m28.501333-320.853333H590.08a22.528 22.528 0 0 1 0-45.098667h104.96a22.528 22.528 0 0 1 0 45.098667z" fill="#707070" fill-opacity=".87" p-id="6730"></path></svg>